<svg xmlns="http://www.w3.org/2000/svg" class="icons-sprite">
	<symbol id="arrowright" viewBox="0 0 15 11">
		<path d="M10.1.656a.55.55 0 0 0-.755 0 .487.487 0 0 0 0 .71L13.178 5H.529A.514.514 0 0 0 0 5.502c0 .28.234.509.53.509h12.648L9.345 9.638a.496.496 0 0 0 0 .717c.211.2.552.2.756 0l4.74-4.494a.476.476 0 0 0 0-.71L10.101.656z"/>
	</symbol>
	<symbol id="attention" viewBox="0 0 56 50">
		<path d="M55.455 44.473L30.732 1.65A3.185 3.185 0 0 0 27.945.043 3.185 3.185 0 0 0 25.16 1.65L.436 44.473a3.184 3.184 0 0 0 0 3.217 3.185 3.185 0 0 0 2.787 1.609h49.445a3.185 3.185 0 0 0 2.787-1.61 3.184 3.184 0 0 0 0-3.216zm-1.418 2.398c-.286.495-.797.79-1.369.79H3.222a1.564 1.564 0 0 1-1.368-.79 1.564 1.564 0 0 1 0-1.58L26.577 2.47c.286-.495.797-.79 1.369-.79.57 0 1.082.295 1.368.79l24.723 42.82a1.564 1.564 0 0 1 0 1.58zM30.402 9.831l-1.748-3.028a.818.818 0 0 0-1.417 0l-21.3 36.893a.819.819 0 0 0 .709 1.228H9.57a.819.819 0 0 0 0-1.638H8.064L27.945 8.85l1.039 1.799a.818.818 0 1 0 1.418-.819zm19.552 33.865L32.061 12.703a.819.819 0 1 0-1.418.819l17.184 29.764H13.07a.819.819 0 0 0 0 1.638h36.175a.819.819 0 0 0 .71-1.228zm-22.009-9.528a2.572 2.572 0 0 0-2.568 2.568 2.572 2.572 0 0 0 2.568 2.57 2.572 2.572 0 0 0 2.57-2.57 2.572 2.572 0 0 0-2.57-2.568zm0 3.5a.932.932 0 0 1 0-1.863.933.933 0 0 1 0 1.863zm3.25-17.21a.819.819 0 0 0-.625-.29h-5.25a.819.819 0 0 0-.807.953l1.75 10.5a.819.819 0 0 0 .807.684h1.75a.82.82 0 0 0 .808-.684l1.75-10.5a.818.818 0 0 0-.183-.664zm-3.068 10.21h-.363l-1.477-8.863h3.317l-1.477 8.863z"/>
	</symbol>
	<symbol id="checkmark" viewBox="0 0 14 11">
		<path d="M13.748.181a.74.74 0 0 0-1.04.07L4.863 9.174l-3.589-3.81a.74.74 0 0 0-1.04-.033.731.731 0 0 0-.035 1.037l4.145 4.4a.74.74 0 0 0 .538.231h.012a.736.736 0 0 0 .543-.25l8.381-9.534a.731.731 0 0 0-.07-1.035z"/>
	</symbol>
	<symbol id="cross" viewBox="0 0 31.112 31.112">
		<path d="M31.112 1.414L29.698 0 15.556 14.142 1.414 0 0 1.414l14.142 14.142L0 29.698l1.414 1.414L15.556 16.97l14.142 14.142 1.414-1.414L16.97 15.556z"/>
	</symbol>
	<symbol id="down" viewBox="0 0 284.929 284.929">
		<path d="M282.082 76.511l-14.274-14.273c-1.902-1.906-4.093-2.856-6.57-2.856-2.471 0-4.661.95-6.563 2.856L142.466 174.441 30.262 62.241c-1.903-1.906-4.093-2.856-6.567-2.856-2.475 0-4.665.95-6.567 2.856L2.856 76.515C.95 78.417 0 80.607 0 83.082c0 2.473.953 4.663 2.856 6.565l133.043 133.046c1.902 1.903 4.093 2.854 6.567 2.854s4.661-.951 6.562-2.854L282.082 89.647c1.902-1.903 2.847-4.093 2.847-6.565 0-2.475-.945-4.665-2.847-6.571z"/>
	</symbol>
	<symbol id="error" viewBox="0 0 475.2 475.2">
		<path d="M405.6 69.6C360.7 24.7 301.1 0 237.6 0s-123.1 24.7-168 69.6S0 174.1 0 237.6s24.7 123.1 69.6 168 104.5 69.6 168 69.6 123.1-24.7 168-69.6 69.6-104.5 69.6-168-24.7-123.1-69.6-168zm-19.1 316.9c-39.8 39.8-92.7 61.7-148.9 61.7s-109.1-21.9-148.9-61.7c-82.1-82.1-82.1-215.7 0-297.8C128.5 48.9 181.4 27 237.6 27s109.1 21.9 148.9 61.7c82.1 82.1 82.1 215.7 0 297.8z"/><path d="M342.3 132.9c-5.3-5.3-13.8-5.3-19.1 0l-85.6 85.6-85.6-85.6c-5.3-5.3-13.8-5.3-19.1 0-5.3 5.3-5.3 13.8 0 19.1l85.6 85.6-85.6 85.6c-5.3 5.3-5.3 13.8 0 19.1 2.6 2.6 6.1 4 9.5 4s6.9-1.3 9.5-4l85.6-85.6 85.6 85.6c2.6 2.6 6.1 4 9.5 4 3.5 0 6.9-1.3 9.5-4 5.3-5.3 5.3-13.8 0-19.1l-85.4-85.6 85.6-85.6c5.3-5.3 5.3-13.8 0-19.1z"/>
	</symbol>
	<symbol id="eye" viewBox="0 0 512 512">
		<path d="M508.177 245.995C503.607 240.897 393.682 121 256 121S8.394 240.897 3.823 245.995a15.002 15.002 0 0 0 0 20.01C8.394 271.103 118.32 391 256 391s247.606-119.897 252.177-124.995a15.004 15.004 0 0 0 0-20.01zM256 361c-57.891 0-105-47.109-105-105s47.109-105 105-105 105 47.109 105 105-47.109 105-105 105z"/><path d="M271 226c0-15.09 7.491-28.365 18.887-36.53C279.661 184.235 268.255 181 256 181c-41.353 0-75 33.647-75 75s33.647 75 75 75c37.024 0 67.668-27.034 73.722-62.358C299.516 278.367 271 255.522 271 226z"/>
	</symbol>
	<symbol id="facebook" viewBox="0 0 24 24">
		<path d="M10.888 9.213v1.091H9.797v1.636h1.09v4.91h2.183v-4.91h1.45l.186-1.636H13.07v-.955c0-.441.043-.676.725-.676h.911V7.031h-1.462c-1.745 0-2.356.818-2.356 2.182z"/><path d="M12 0C5.373 0 0 5.373 0 12s5.373 12 12 12 12-5.373 12-12S18.627 0 12 0zm0 22.91C5.975 22.91 1.09 18.024 1.09 12S5.976 1.09 12 1.09 22.91 5.976 22.91 12 18.024 22.91 12 22.91z"/>
	</symbol>
	<symbol id="instagram" viewBox="0 0 24 24">
		<path d="M12 0C5.373 0 0 5.373 0 12s5.373 12 12 12 12-5.373 12-12S18.627 0 12 0zm0 22.91C5.975 22.91 1.09 18.024 1.09 12S5.976 1.09 12 1.09 22.91 5.976 22.91 12 18.024 22.91 12 22.91zm3.273-16.365H8.727a2.182 2.182 0 0 0-2.182 2.182v6.546c0 1.205.977 2.181 2.182 2.181h6.546a2.182 2.182 0 0 0 2.182-2.181V8.727a2.182 2.182 0 0 0-2.182-2.182zm-1.091 1.637h1.636v1.636h-1.636V8.182zM12 9.818a2.182 2.182 0 1 1 0 4.364 2.182 2.182 0 0 1 0-4.364zm4.364 5.455a1.09 1.09 0 0 1-1.091 1.09H8.727a1.09 1.09 0 0 1-1.09-1.09v-3.818h1.145a3.273 3.273 0 1 0 6.436 0h1.146v3.818z"/>
	</symbol>
	<symbol id="left" viewBox="0 0 284.935 284.936">
		<path d="M110.488 142.468L222.694 30.264c1.902-1.903 2.854-4.093 2.854-6.567s-.951-4.664-2.854-6.563L208.417 2.857C206.513.955 204.324 0 201.856 0c-2.475 0-4.664.955-6.567 2.857L62.24 135.9c-1.903 1.903-2.852 4.093-2.852 6.567 0 2.475.949 4.664 2.852 6.567l133.042 133.043c1.906 1.906 4.097 2.857 6.571 2.857 2.471 0 4.66-.951 6.563-2.857l14.277-14.267c1.902-1.903 2.851-4.094 2.851-6.57 0-2.472-.948-4.661-2.851-6.564L110.488 142.468z"/>
	</symbol>
	<symbol id="mail" viewBox="0 0 18 14">
		<path d="M15.75 0h-14C.787 0 .009.787.009 1.75L0 12.25C0 13.213.787 14 1.75 14h14c.962 0 1.75-.787 1.75-1.75V1.75C17.5.787 16.712 0 15.75 0zm0 3.5l-7 4.375-7-4.375V1.75l7 4.375 7-4.375V3.5z"/>
	</symbol>
	<symbol id="right" viewBox="0 0 284.935 284.936">
		<path d="M222.701 135.9L89.652 2.857C87.748.955 85.557 0 83.084 0c-2.474 0-4.664.955-6.567 2.857L62.244 17.133c-1.906 1.903-2.855 4.089-2.855 6.567 0 2.478.949 4.664 2.855 6.567l112.204 112.204L62.244 254.677c-1.906 1.903-2.855 4.093-2.855 6.564 0 2.477.949 4.667 2.855 6.57l14.274 14.271c1.903 1.905 4.093 2.854 6.567 2.854 2.473 0 4.663-.951 6.567-2.854l133.042-133.044c1.902-1.902 2.854-4.093 2.854-6.567s-.945-4.664-2.847-6.571z"/>
	</symbol>
	<symbol id="search" viewBox="0 0 56.966 56.966">
		<path d="M55.146 51.887L41.588 37.786A22.926 22.926 0 0 0 46.984 23c0-12.682-10.318-23-23-23s-23 10.318-23 23 10.318 23 23 23c4.761 0 9.298-1.436 13.177-4.162l13.661 14.208c.571.593 1.339.92 2.162.92.779 0 1.518-.297 2.079-.837a3.004 3.004 0 0 0 .083-4.242zM23.984 6c9.374 0 17 7.626 17 17s-7.626 17-17 17-17-7.626-17-17 7.626-17 17-17z"/>
	</symbol>
	<symbol id="skype" viewBox="0 0 14 14">
		<path d="M13.257 8.358a6.72 6.72 0 0 0 .145-1.365c0-.868-.168-1.699-.505-2.49a6.408 6.408 0 0 0-1.365-2.05 6.41 6.41 0 0 0-2.049-1.365 6.302 6.302 0 0 0-2.49-.505c-.443 0-.899.048-1.366.145A3.406 3.406 0 0 0 3.497 0c-.966 0-1.79.341-2.473 1.024A3.368 3.368 0 0 0 0 3.496c0 .79.243 1.5.728 2.13a6.709 6.709 0 0 0-.145 1.367 6.3 6.3 0 0 0 .505 2.49 6.41 6.41 0 0 0 1.366 2.048 6.411 6.411 0 0 0 2.048 1.366 6.299 6.299 0 0 0 2.49.505c.444 0 .9-.048 1.367-.145a3.405 3.405 0 0 0 2.13.728c.965 0 1.79-.341 2.472-1.024a3.369 3.369 0 0 0 1.024-2.472c0-.79-.243-1.5-.728-2.13zM10.38 9.71c-.2.356-.47.64-.806.852a4.15 4.15 0 0 1-1.116.487 4.771 4.771 0 0 1-1.274.168c-1.026 0-1.909-.199-2.65-.596-.74-.398-1.11-.876-1.11-1.434 0-.273.077-.5.232-.683.155-.182.384-.273.687-.273.176 0 .34.048.492.145.151.098.291.215.419.351.127.137.265.273.414.41.149.137.346.253.592.35.245.098.523.146.833.146.394 0 .713-.077.956-.232.243-.155.364-.35.364-.587a.602.602 0 0 0-.291-.546c-.134-.086-.474-.195-1.02-.328l-1.33-.328a5.632 5.632 0 0 1-.937-.296 3.089 3.089 0 0 1-.729-.442 1.724 1.724 0 0 1-.51-.687 2.504 2.504 0 0 1-.172-.97c0-.443.101-.833.305-1.17.203-.337.473-.6.81-.792.337-.191.7-.334 1.088-.428a5.086 5.086 0 0 1 1.202-.14c.583 0 1.135.069 1.657.208.522.14.953.345 1.293.615.34.27.51.572.51.906 0 .273-.087.507-.26.701a.875.875 0 0 1-.687.291.898.898 0 0 1-.437-.109 1.75 1.75 0 0 1-.365-.264 6.927 6.927 0 0 0-.346-.305 1.616 1.616 0 0 0-.491-.26 2.1 2.1 0 0 0-.701-.109c-.874 0-1.311.234-1.311.701a.53.53 0 0 0 .068.273.765.765 0 0 0 .15.192.912.912 0 0 0 .273.145c.128.05.234.084.319.105l.4.096.947.218c.298.067.563.137.797.21.234.073.484.176.751.31a2.8 2.8 0 0 1 .665.445 2.006 2.006 0 0 1 .62 1.457c0 .443-.1.842-.301 1.197z"/>
	</symbol>
	<symbol id="success" viewBox="0 0 14 11">
		<path d="M13.748.181a.74.74 0 0 0-1.04.07L4.863 9.174l-3.589-3.81a.74.74 0 0 0-1.04-.033.731.731 0 0 0-.035 1.037l4.145 4.4a.74.74 0 0 0 .538.231h.012a.736.736 0 0 0 .543-.25l8.381-9.534a.731.731 0 0 0-.07-1.035z"/>
	</symbol>
	<symbol id="telegram" viewBox="0 0 16 14">
		<path d="M.283 6.714l3.694 1.378 1.43 4.598a.435.435 0 0 0 .69.208l2.06-1.678a.614.614 0 0 1 .748-.021l3.714 2.696a.435.435 0 0 0 .682-.263L16.02.546a.435.435 0 0 0-.583-.495L.278 5.9a.436.436 0 0 0 .005.815zm4.893.645l7.22-4.447c.129-.08.262.096.151.2L6.589 8.65c-.21.194-.344.455-.383.738l-.202 1.504c-.027.201-.31.221-.365.027l-.78-2.743a.727.727 0 0 1 .317-.817z"/>
	</symbol>
	<symbol id="twitter" viewBox="0 0 24 24">
		<path d="M17.687 7.84a4.53 4.53 0 0 1-1.423.546 2.253 2.253 0 0 0-1.637-.698 2.22 2.22 0 0 0-2.236 2.181c0 .17.02.338.06.502A6.387 6.387 0 0 1 7.836 8.07c-.196.33-.301.707-.305 1.091 0 .741.376 1.431.998 1.833a2.258 2.258 0 0 1-1.015-.278v.027a2.215 2.215 0 0 0 1.795 2.182c-.33.088-.674.1-1.01.038a2.236 2.236 0 0 0 2.09 1.527 4.533 4.533 0 0 1-3.31.922 6.409 6.409 0 0 0 3.43.993 6.273 6.273 0 0 0 6.387-6.267v-.284a4.53 4.53 0 0 0 1.091-1.14c-.41.18-.843.297-1.287.35a2.22 2.22 0 0 0 .987-1.223z"/><path d="M12 0C5.373 0 0 5.373 0 12s5.373 12 12 12 12-5.373 12-12S18.627 0 12 0zm0 22.91C5.975 22.91 1.09 18.024 1.09 12S5.976 1.09 12 1.09 22.91 5.976 22.91 12 18.024 22.91 12 22.91z"/>
	</symbol>
	<symbol id="up" viewBox="0 0 284.929 284.929">
		<path d="M282.082 195.285L149.028 62.24c-1.901-1.903-4.088-2.856-6.562-2.856s-4.665.953-6.567 2.856L2.856 195.285C.95 197.191 0 199.378 0 201.853c0 2.474.953 4.664 2.856 6.566l14.272 14.271c1.903 1.903 4.093 2.854 6.567 2.854s4.664-.951 6.567-2.854l112.204-112.202 112.208 112.209c1.902 1.903 4.093 2.848 6.563 2.848 2.478 0 4.668-.951 6.57-2.848l14.274-14.277c1.902-1.902 2.847-4.093 2.847-6.566.001-2.476-.944-4.666-2.846-6.569z"/>
	</symbol>
	<symbol id="vk" viewBox="0 0 24 24">
		<path d="M12 0C5.372 0 0 5.372 0 12s5.372 12 12 12 12-5.372 12-12S18.628 0 12 0zm0 22.908C5.977 22.908 1.092 18.023 1.092 12S5.977 1.092 12 1.092 22.908 5.977 22.908 12 18.023 22.908 12 22.908z"/><path d="M17.024 13.819c-.323-.39-.708-.722-1.069-1.074-.328-.318-.346-.501-.084-.872.286-.403.595-.787.881-1.185.272-.376.544-.746.69-1.191.088-.286.009-.408-.282-.46-.051-.009-.103-.009-.155-.009h-1.73c-.21-.005-.332.09-.407.277-.103.253-.206.51-.328.754-.277.558-.581 1.097-1.013 1.557-.093.098-.201.23-.356.173-.197-.07-.258-.398-.253-.51V9.28c-.038-.286-.103-.412-.384-.469h-1.796c-.239 0-.36.094-.487.244-.075.085-.099.14.056.174.3.056.464.248.511.548.07.478.066.956.023 1.434a1.392 1.392 0 0 1-.093.413c-.09.206-.225.248-.413.122-.169-.113-.286-.277-.398-.436a9.713 9.713 0 0 1-1.055-1.955c-.08-.197-.22-.319-.431-.323a43.06 43.06 0 0 0-1.556 0c-.315.005-.404.16-.277.44.562 1.257 1.195 2.48 2.016 3.591.421.572.904 1.073 1.528 1.434.708.404 1.472.525 2.273.488.375-.019.488-.117.506-.492.014-.258.043-.511.17-.74.121-.226.313-.268.529-.127.108.07.201.159.286.253.21.23.417.468.637.693.277.282.6.446 1.013.413h1.589c.258-.019.389-.333.244-.614a2.993 2.993 0 0 0-.385-.553z"/>
	</symbol>
	<symbol id="youtube" viewBox="0 0 24 24">
		<path d="M11.864 9.6h.266c.588 0 1.066-.445 1.07-.996v-1.62c-.01-.544-.483-.98-1.064-.984h-.266c-.588 0-1.066.445-1.07.996v1.62c.01.544.483.98 1.064.984zm2.217 3.647c.18.14.254.396.254.697l.004 1.463c.061-.081.061-.158.061-.158v-1.698s-.063-.209-.319-.304zM12 0c6.627 0 12 5.373 12 12s-5.373 12-12 12S0 18.627 0 12 5.373 0 12 0zm-.402 6.923c0-.208.18-.377.402-.376.222 0 .402.168.402.376v1.742c0 .208-.18.376-.402.376-.222 0-.402-.168-.402-.376V6.923zM9.263 9.6l.01-1.49L8.4 6h.739l.496 1.4.496-1.4h.669l-.818 2.11V9.6h-.72zm4.544 0c-.304 0-.562-.206-.607-.486V6h.828v2.847s.013.188.268.188c.254 0 .521-.291.521-.291V6h.783v3.54h-.783v-.377c-.273.249-.63.403-1.01.437zM12 22.91c6.025 0 10.91-4.885 10.91-10.91S18.024 1.09 12 1.09 1.09 5.976 1.09 12 5.976 22.91 12 22.91zm4.168-12.003c.904-.014 1.648.664 1.663 1.513.106.652.162 1.31.169 1.97a13.407 13.407 0 0 1-.17 1.969v.052c-.03.85-.787 1.515-1.69 1.486 0 0-2.035.103-4.14.103-2.105 0-4.14-.103-4.14-.103l-.055.001c-.904 0-1.636-.69-1.636-1.539A13.375 13.375 0 0 1 6 14.389c.008-.652.065-1.303.17-1.948v-.052c.03-.85.787-1.515 1.69-1.486 0 0 2.067-.103 4.14-.103 2.073 0 4.13.108 4.13.108h.01l.028-.001zm-6.617 1.719l.016-.657H7.091v.657h.824v3.99h.812v-3.99h.824zm2.144 3.99l.021-3.488h-.676v2.831s-.23.251-.453.251-.223-.154-.223-.154v-2.928H9.66v3.134c.036.236.254.41.507.405a1.47 1.47 0 0 0 .846-.354v.302h.682zm2.386-3.37a.583.583 0 0 0-.368-.113 1.117 1.117 0 0 0-.731.344v-1.508h-.731v4.646h.736v-.287a.927.927 0 0 0 .731.339c.622 0 .622-.81.622-.81l-.001-.45c-.07.093-.22.193-.539.193a1.216 1.216 0 0 1-.6-.137v-2.105c.15-.095.367-.152.6-.158.113 0 .206.018.281.047zM16.2 13.2c.6 0 .6.524.6.524v.676h-1.2v-.676s0-.524.6-.524zm.785 1.815V13.99a.784.784 0 0 0-.008-.148c-.07-.457-.52-.774-1.006-.709a1.01 1.01 0 0 0-.115-.01c-.524-.014-.96.374-.976.867v1.98c.135.451.593.749 1.09.707.481.04.918-.264 1.015-.708v-.554h-.73v.36s0 .353-.339.353c-.338 0-.338-.354-.338-.354v-.759h1.407z"/>
	</symbol>
</svg>