<svg xmlns="http://www.w3.org/2000/svg" width="36" height="37" viewBox="0 0 36 37"><g fill="none"><circle cx="17.872" cy="18.19" r="17.872" fill="#DC4E41"/><path fill="#DC4E41" d="M6.222 18.99C6.16 22.065 8.277 25 11.19 25.957c2.745.922 6.119.232 7.945-2.118 1.333-1.647 1.636-3.842 1.492-5.893-2.35-.022-4.7-.014-7.047-.011-.004.837 0 1.671.003 2.509 1.407.038 2.815.02 4.222.049-.355 1.217-1.164 2.35-2.393 2.79-2.37 1.045-5.396-.32-6.142-2.808-.901-2.382.573-5.257 3.008-5.95 1.509-.53 3.064.067 4.356.852a33.326 33.326 0 0 0 1.868-1.928c-1.468-1.228-3.353-1.98-5.292-1.815-3.803.045-7.132 3.556-6.988 7.356zM25.2 15.823c-.006.7-.014 1.404-.017 2.104-.704.007-1.404.01-2.104.014v2.097c.7.004 1.404.007 2.104.015.007.7.007 1.4.014 2.104.697 0 1.397-.004 2.097 0 .004-.704.007-1.404.014-2.108l2.104-.01v-2.097c-.7-.004-1.404-.007-2.104-.014l-.014-2.104H25.2z"/><path d="M6.222 18.99c-.144-3.8 3.184-7.311 6.988-7.357 1.938-.165 3.824.588 5.291 1.816a33.435 33.435 0 0 1-1.868 1.928c-1.291-.785-2.846-1.383-4.356-.852-2.434.693-3.909 3.568-3.008 5.95.746 2.487 3.772 3.852 6.143 2.807 1.228-.44 2.037-1.572 2.393-2.79-1.407-.027-2.815-.01-4.222-.049-.004-.837-.007-1.671-.004-2.508 2.347-.004 4.697-.01 7.047.01.145 2.052-.158 4.247-1.492 5.893-1.826 2.35-5.2 3.04-7.944 2.118-2.913-.956-5.031-3.89-4.968-6.966zM25.2 15.823h2.094l.014 2.104c.7.007 1.404.01 2.104.014v2.097l-2.104.01c-.007.705-.01 1.404-.014 2.108-.7-.003-1.4 0-2.097 0-.007-.704-.007-1.403-.014-2.104-.7-.007-1.404-.01-2.104-.014v-2.097c.7-.003 1.4-.007 2.104-.014.003-.7.01-1.403.018-2.104z" fill="#FFF"/></g></svg>