<svg xmlns="http://www.w3.org/2000/svg" width="36" height="36" viewBox="0 0 36 36">
    <g fill="#C536A4" fill-rule="nonzero">
        <path d="M23.32 9.56H12.6c-1.72 0-3.08 1.4-3.08 3.08v10.72c0 1.72 1.4 3.08 3.08 3.08h10.72c1.72 0 3.08-1.4 3.08-3.08V12.64c0-1.68-1.4-3.08-3.08-3.08zm-5.36 14c-3.08 0-5.56-2.48-5.56-5.56 0-3.08 2.48-5.56 5.56-5.56 3.08 0 5.56 2.48 5.56 5.56 0 3.08-2.52 5.56-5.56 5.56zm5.72-9.96c-.72 0-1.32-.6-1.32-1.32 0-.72.6-1.32 1.32-1.32.72 0 1.32.6 1.32 1.32 0 .72-.6 1.32-1.32 1.32z"/>
        <path d="M17.96 14.8a3.21 3.21 0 0 0-3.2 3.2c0 1.76 1.44 3.2 3.2 3.2 1.76 0 3.2-1.44 3.2-3.2 0-1.76-1.44-3.2-3.2-3.2z"/>
        <path d="M17.96 0C8.04 0 0 8.04 0 17.96c0 9.92 8.04 17.96 17.96 17.96 9.92 0 17.96-8.04 17.96-17.96C35.92 8.04 27.88 0 17.96 0zm10.8 23.36c0 3-2.44 5.44-5.44 5.44H12.6c-3 0-5.44-2.44-5.44-5.44V12.64c0-3 2.44-5.44 5.44-5.44h10.72c3 0 5.44 2.44 5.44 5.44v10.72z"/>
    </g>
</svg>
