<svg xmlns="http://www.w3.org/2000/svg" width="36" height="36" viewBox="0 0 36 36">
    <g fill="none" fill-rule="nonzero">
        <circle cx="17.872" cy="17.872" r="17.872" fill="#55ACEE"/>
        <path fill="#F1F2F2" d="M28.82 12.844c-.766.34-1.59.57-2.454.672a4.283 4.283 0 0 0 1.878-2.363c-.825.49-1.74.845-2.712 1.036a4.273 4.273 0 0 0-7.28 3.897 12.127 12.127 0 0 1-8.805-4.464 4.272 4.272 0 0 0 1.322 5.704 4.242 4.242 0 0 1-1.935-.535v.054a4.274 4.274 0 0 0 3.426 4.189 4.257 4.257 0 0 1-1.929.073 4.276 4.276 0 0 0 3.99 2.967 8.571 8.571 0 0 1-5.305 1.829c-.344 0-.685-.02-1.019-.06a12.084 12.084 0 0 0 6.548 1.92c7.858 0 12.155-6.51 12.155-12.156 0-.185-.004-.37-.013-.552a8.663 8.663 0 0 0 2.132-2.211z"/>
    </g>
</svg>
