<svg xmlns="http://www.w3.org/2000/svg" width="36" height="36" viewBox="0 0 36 36">
    <g fill="none" fill-rule="nonzero">
        <path fill="#C4302B" d="M17.958 0c9.918 0 17.958 8.04 17.958 17.958 0 9.917-8.04 17.958-17.958 17.958C8.039 35.916 0 27.876 0 17.958 0 8.041 8.04 0 17.958 0z"/>
        <path fill="#FFF" d="M17.525 14.592c.568 0 1.012-.18 1.338-.438.323-.258.485-.61.485-1.06V10.37c0-.401-.165-.732-.494-.987-.332-.255-.755-.381-1.273-.381-.567 0-1.02.12-1.356.36a1.14 1.14 0 0 0-.505.976v2.732c0 .449.164.804.491 1.07.328.266.767.451 1.314.451zm-.594-4.12c0-.104.054-.186.16-.253a.81.81 0 0 1 .418-.095c.186 0 .337.031.45.095.115.067.17.15.17.253v2.588a.342.342 0 0 1-.167.302.83.83 0 0 1-.453.109c-.185 0-.329-.035-.429-.108a.351.351 0 0 1-.149-.303v-2.588zm4.352 4.117c.2 0 .402-.115.614-.23.213-.116.416-.287.611-.509v.605h1.06v-5.46h-1.06v4.145a1.504 1.504 0 0 1-.326.293c-.12.076-.22.115-.297.115-.1 0-.172-.028-.215-.087-.045-.058-.07-.15-.07-.279V8.996h-1.058v4.562c0 .326.064.57.186.731.125.163.309.3.555.3zm3.084 2.257H11.549c-2.038 0-3.689 1.588-3.689 3.544v2.997c0 1.957 1.651 3.546 3.69 3.546h12.817c2.037 0 3.689-1.589 3.689-3.546V20.39c0-1.956-1.652-3.544-3.69-3.544zm-10.91 3.041h-1.134v4.694h-1.097v-4.694h-1.134v-.8h3.364v.8zm3.382 4.76h-1.182v-.488c-.22.18-.445.318-.683.41a1.793 1.793 0 0 1-.686.142c-.274 0-.478-.066-.617-.2-.137-.13-.208-.328-.208-.592v-3.706h1.182v3.4c0 .105.025.18.072.226.051.049.133.07.243.07.086 0 .198-.03.33-.093.134-.062.256-.14.367-.238v-3.366h1.182v4.434zm4.474-.845c0 .291-.092.512-.275.668-.18.156-.448.232-.793.232-.23 0-.434-.029-.611-.088a1.538 1.538 0 0 1-.5-.279v.315h-1.18v-5.563h1.18v1.793c.16-.124.327-.22.5-.285.18-.067.359-.098.54-.098.369 0 .65.086.845.26.196.175.294.432.294.768v2.277zm4.496-1.251h-2.177v.801c0 .224.036.378.11.466.077.086.206.129.387.129.19 0 .32-.037.397-.11.074-.074.115-.235.115-.486v-.193h1.17v.218c0 .435-.14.763-.43.984-.285.22-.711.33-1.278.33-.51 0-.912-.117-1.205-.35-.292-.231-.44-.555-.44-.963v-1.91c0-.368.161-.67.485-.903.322-.231.735-.347 1.245-.347.521 0 .922.108 1.202.322.28.215.42.525.42.926l-.001 1.086zm-12.988-7.947h1.339v-3.262l1.559-4.602h-1.362l-.828 3.145h-.085l-.869-3.145h-1.35l1.596 4.749v3.115zm6.801 6.544l-.248.04-.24.125v2.557c.093.066.187.116.276.144l.282.044c.144 0 .248-.028.315-.087.067-.058.101-.152.101-.281v-2.12c0-.14-.039-.245-.122-.316-.085-.07-.205-.106-.364-.106z"/>
        <path fill="#FFF" d="M24.192 20.961c-.182 0-.311.039-.39.117-.08.075-.118.203-.118.382v.429h1.007v-.43c0-.178-.041-.304-.12-.38-.077-.08-.206-.118-.38-.118z"/>
    </g>
</svg>
