<svg xmlns="http://www.w3.org/2000/svg" width="56" height="50" viewBox="0 0 56 50">
    <path fill="#FDDA24" fill-rule="nonzero" d="M55.455 44.473L30.732 1.65A3.185 3.185 0 0 0 27.945.043 3.185 3.185 0 0 0 25.16 1.65L.436 44.473a3.184 3.184 0 0 0 0 3.217 3.185 3.185 0 0 0 2.787 1.609h49.445a3.185 3.185 0 0 0 2.787-1.61 3.184 3.184 0 0 0 0-3.216zm-1.418 2.398c-.286.495-.797.79-1.369.79H3.222a1.564 1.564 0 0 1-1.368-.79 1.564 1.564 0 0 1 0-1.58L26.577 2.47c.286-.495.797-.79 1.369-.79.57 0 1.082.295 1.368.79L54.037 45.29a1.564 1.564 0 0 1 0 1.58zM30.402 9.831l-1.748-3.028a.818.818 0 0 0-1.417 0l-21.3 36.893a.819.819 0 0 0 .709 1.228H9.57a.819.819 0 0 0 0-1.638H8.064L27.945 8.85l1.039 1.799a.818.818 0 1 0 1.418-.819zm19.552 33.865L32.061 12.703a.819.819 0 1 0-1.418.819l17.184 29.764H13.07a.819.819 0 0 0 0 1.638h36.175a.819.819 0 0 0 .71-1.228zm-22.009-9.528a2.572 2.572 0 0 0-2.568 2.568 2.572 2.572 0 0 0 2.568 2.57 2.572 2.572 0 0 0 2.57-2.57 2.572 2.572 0 0 0-2.57-2.568zm0 3.5a.932.932 0 0 1 0-1.863.933.933 0 0 1 0 1.863zm3.25-17.21a.819.819 0 0 0-.625-.29h-5.25a.819.819 0 0 0-.807.953l1.75 10.5a.819.819 0 0 0 .807.684h1.75c.4 0 .742-.289.808-.684l1.75-10.5a.818.818 0 0 0-.183-.664zm-3.068 10.21h-.363l-1.477-8.863h3.317l-1.477 8.863z"/>
</svg>
