<svg xmlns="http://www.w3.org/2000/svg" width="24" height="24" viewBox="0 0 24 24">
    <g fill="#7C8F98" fill-rule="nonzero">
        <path d="M10.888 9.213v1.091H9.797v1.636h1.09v4.91h2.183v-4.91h1.45l.186-1.636H13.07v-.955c0-.441.043-.676.725-.676h.911V7.031h-1.462c-1.745 0-2.356.818-2.356 2.182z"/>
        <path d="M12 0C5.373 0 0 5.373 0 12s5.373 12 12 12 12-5.373 12-12S18.627 0 12 0zm0 22.91C5.975 22.91 1.09 18.024 1.09 12S5.976 1.09 12 1.09 22.91 5.976 22.91 12 18.024 22.91 12 22.91z"/>
    </g>
</svg>
