<svg xmlns="http://www.w3.org/2000/svg" width="24" height="24" viewBox="0 0 24 24">
    <path fill="#7C8F98" fill-rule="nonzero" d="M12 0C5.373 0 0 5.373 0 12s5.373 12 12 12 12-5.373 12-12S18.627 0 12 0zm0 22.91C5.975 22.91 1.09 18.024 1.09 12S5.976 1.09 12 1.09 22.91 5.976 22.91 12 18.024 22.91 12 22.91zm3.273-16.365H8.727a2.182 2.182 0 0 0-2.182 2.182v6.546c0 1.205.977 2.181 2.182 2.181h6.546a2.182 2.182 0 0 0 2.182-2.181V8.727a2.182 2.182 0 0 0-2.182-2.182zm-1.091 1.637h1.636v1.636h-1.636V8.182zM12 9.818a2.182 2.182 0 1 1 0 4.364 2.182 2.182 0 0 1 0-4.364zm4.364 5.455a1.09 1.09 0 0 1-1.091 1.09H8.727a1.09 1.09 0 0 1-1.09-1.09v-3.818h1.145a3.273 3.273 0 1 0 6.436 0h1.146v3.818z"/>
</svg>
