<svg xmlns="http://www.w3.org/2000/svg" width="14" height="14" viewBox="0 0 14 14">
    <path fill="#D1DBE3" fill-rule="nonzero" d="M13.257 8.358a6.72 6.72 0 0 0 .145-1.365c0-.868-.168-1.699-.505-2.49a6.408 6.408 0 0 0-1.365-2.05 6.41 6.41 0 0 0-2.049-1.365 6.302 6.302 0 0 0-2.49-.505c-.443 0-.899.048-1.366.145A3.406 3.406 0 0 0 3.497 0c-.966 0-1.79.341-2.473 1.024A3.368 3.368 0 0 0 0 3.496c0 .79.243 1.5.728 2.13a6.709 6.709 0 0 0-.145 1.367 6.3 6.3 0 0 0 .505 2.49 6.41 6.41 0 0 0 1.366 2.048 6.411 6.411 0 0 0 2.048 1.366 6.299 6.299 0 0 0 2.49.505c.444 0 .9-.048 1.367-.145a3.405 3.405 0 0 0 2.13.728c.965 0 1.79-.341 2.472-1.024a3.369 3.369 0 0 0 1.024-2.472c0-.79-.243-1.5-.728-2.13zM10.38 9.71c-.2.356-.47.64-.806.852a4.15 4.15 0 0 1-1.116.487 4.771 4.771 0 0 1-1.274.168c-1.026 0-1.909-.199-2.65-.596-.74-.398-1.11-.876-1.11-1.434 0-.273.077-.5.232-.683.155-.182.384-.273.687-.273.176 0 .34.048.492.145.151.098.291.215.419.351.127.137.265.273.414.41.149.137.346.253.592.35.245.098.523.146.833.146.394 0 .713-.077.956-.232.243-.155.364-.35.364-.587a.602.602 0 0 0-.291-.546c-.134-.086-.474-.195-1.02-.328l-1.33-.328a5.632 5.632 0 0 1-.937-.296 3.089 3.089 0 0 1-.729-.442 1.724 1.724 0 0 1-.51-.687 2.504 2.504 0 0 1-.172-.97c0-.443.101-.833.305-1.17.203-.337.473-.6.81-.792.337-.191.7-.334 1.088-.428a5.086 5.086 0 0 1 1.202-.14c.583 0 1.135.069 1.657.208.522.14.953.345 1.293.615.34.27.51.572.51.906 0 .273-.087.507-.26.701a.875.875 0 0 1-.687.291.898.898 0 0 1-.437-.109 1.75 1.75 0 0 1-.365-.264 6.927 6.927 0 0 0-.346-.305 1.616 1.616 0 0 0-.491-.26 2.1 2.1 0 0 0-.701-.109c-.874 0-1.311.234-1.311.701 0 .103.022.195.068.273a.765.765 0 0 0 .15.192.912.912 0 0 0 .273.145c.128.05.234.084.319.105l.4.096.947.218c.298.067.563.137.797.21.234.073.484.176.751.31.267.133.489.281.665.445a2.006 2.006 0 0 1 .62 1.457c0 .443-.1.842-.301 1.197z"/>
</svg>
