<svg xmlns="http://www.w3.org/2000/svg" width="16" height="14" viewBox="0 0 16 14">
    <path fill="#D1DBE3" fill-rule="nonzero" d="M.283 6.714l3.694 1.378 1.43 4.598a.435.435 0 0 0 .69.208l2.06-1.678a.614.614 0 0 1 .748-.021l3.714 2.696a.435.435 0 0 0 .682-.263L16.02.546a.435.435 0 0 0-.583-.495L.278 5.9a.436.436 0 0 0 .005.815zm4.893.645l7.22-4.447c.129-.08.262.096.151.2L6.589 8.65c-.21.194-.344.455-.383.738l-.202 1.504c-.027.201-.31.221-.365.027l-.78-2.743a.727.727 0 0 1 .317-.817z"/>
</svg>
