<svg xmlns="http://www.w3.org/2000/svg" width="24" height="24" viewBox="0 0 24 24">
    <g fill="#7C8F98" fill-rule="nonzero">
        <path d="M17.687 7.84c-.44.261-.922.446-1.423.546a2.253 2.253 0 0 0-1.637-.698 2.22 2.22 0 0 0-2.236 2.181c0 .17.02.338.06.502A6.387 6.387 0 0 1 7.836 8.07c-.196.33-.301.707-.305 1.091 0 .741.376 1.431.998 1.833a2.258 2.258 0 0 1-1.015-.278v.027a2.215 2.215 0 0 0 1.795 2.182c-.33.088-.674.1-1.01.038a2.236 2.236 0 0 0 2.09 1.527 4.533 4.533 0 0 1-3.31.922 6.409 6.409 0 0 0 3.43.993 6.273 6.273 0 0 0 6.387-6.267v-.284c.428-.313.797-.7 1.091-1.14-.41.18-.843.297-1.287.35a2.22 2.22 0 0 0 .987-1.223z"/>
        <path d="M12 0C5.373 0 0 5.373 0 12s5.373 12 12 12 12-5.373 12-12S18.627 0 12 0zm0 22.91C5.975 22.91 1.09 18.024 1.09 12S5.976 1.09 12 1.09 22.91 5.976 22.91 12 18.024 22.91 12 22.91z"/>
    </g>
</svg>
