<svg xmlns="http://www.w3.org/2000/svg" width="24" height="24" viewBox="0 0 24 24">
    <g fill="#7C8F98" fill-rule="nonzero">
        <path d="M12 0C5.372 0 0 5.372 0 12s5.372 12 12 12 12-5.372 12-12S18.628 0 12 0zm0 22.908C5.977 22.908 1.092 18.023 1.092 12S5.977 1.092 12 1.092 22.908 5.977 22.908 12 18.023 22.908 12 22.908z"/>
        <path d="M17.024 13.819c-.323-.39-.708-.722-1.069-1.074-.328-.318-.346-.501-.084-.872.286-.403.595-.787.881-1.185.272-.376.544-.746.69-1.191.088-.286.009-.408-.282-.46-.051-.009-.103-.009-.155-.009h-1.73c-.21-.005-.332.09-.407.277-.103.253-.206.51-.328.754-.277.558-.581 1.097-1.013 1.557-.093.098-.201.23-.356.173-.197-.07-.258-.398-.253-.51V9.28c-.038-.286-.103-.412-.384-.469h-1.796c-.239 0-.36.094-.487.244-.075.085-.099.14.056.174.3.056.464.248.511.548.07.478.066.956.023 1.434-.014.141-.037.282-.093.413-.09.206-.225.248-.413.122-.169-.113-.286-.277-.398-.436a9.713 9.713 0 0 1-1.055-1.955c-.08-.197-.22-.319-.431-.323a43.06 43.06 0 0 0-1.556 0c-.315.005-.404.16-.277.44.562 1.257 1.195 2.48 2.016 3.591.421.572.904 1.073 1.528 1.434.708.404 1.472.525 2.273.488.375-.019.488-.117.506-.492.014-.258.043-.511.17-.74.121-.226.313-.268.529-.127.108.07.201.159.286.253.21.23.417.468.637.693.277.282.6.446 1.013.413h1.589c.258-.019.389-.333.244-.614a2.993 2.993 0 0 0-.385-.553z"/>
    </g>
</svg>
