<svg xmlns="http://www.w3.org/2000/svg" width="24" height="24" viewBox="0 0 24 24">
    <path fill="#7C8F98" fill-rule="nonzero" d="M11.864 9.6h.266c.588 0 1.066-.445 1.07-.996v-1.62c-.01-.544-.483-.98-1.064-.984h-.266c-.588 0-1.066.445-1.07.996v1.62c.01.544.483.98 1.064.984zm2.217 3.647c.18.14.254.396.254.697l.004 1.463c.061-.081.061-.158.061-.158v-1.698s-.063-.209-.319-.304zM12 0c6.627 0 12 5.373 12 12s-5.373 12-12 12S0 18.627 0 12 5.373 0 12 0zm-.402 6.923c0-.208.18-.377.402-.376.222 0 .402.168.402.376v1.742c0 .208-.18.376-.402.376-.222 0-.402-.168-.402-.376V6.923zM9.263 9.6l.01-1.49L8.4 6h.739l.496 1.4.496-1.4h.669l-.818 2.11V9.6h-.72zm4.544 0c-.304 0-.562-.206-.607-.486V6h.828v2.847s.013.188.268.188c.254 0 .521-.291.521-.291V6h.783v3.54h-.783v-.377c-.273.249-.63.403-1.01.437zM12 22.91c6.025 0 10.91-4.885 10.91-10.91S18.024 1.09 12 1.09 1.09 5.976 1.09 12 5.976 22.91 12 22.91zm4.168-12.003c.904-.014 1.648.664 1.663 1.513.106.652.162 1.31.169 1.97-.008.659-.065 1.317-.17 1.969v.052c-.03.85-.787 1.515-1.69 1.486 0 0-2.035.103-4.14.103-2.105 0-4.14-.103-4.14-.103l-.055.001c-.904 0-1.636-.69-1.636-1.539A13.375 13.375 0 0 1 6 14.389c.008-.652.065-1.303.17-1.948v-.052c.03-.85.787-1.515 1.69-1.486 0 0 2.067-.103 4.14-.103 2.073 0 4.13.108 4.13.108h.01l.028-.001zm-6.617 1.719l.016-.657H7.091v.657h.824v3.99h.812v-3.99h.824zm2.144 3.99l.021-3.488h-.676v2.831s-.23.251-.453.251-.223-.154-.223-.154v-2.928H9.66v3.134c.036.236.254.41.507.405.316-.026.614-.151.846-.354v.302h.682zm2.386-3.37a.583.583 0 0 0-.368-.113 1.117 1.117 0 0 0-.731.344v-1.508h-.731v4.646h.736v-.287c.173.216.444.341.731.339.622 0 .622-.81.622-.81l-.001-.45c-.07.093-.22.193-.539.193a1.216 1.216 0 0 1-.6-.137v-2.105c.15-.095.367-.152.6-.158.113 0 .206.018.281.047zM16.2 13.2c.6 0 .6.524.6.524v.676h-1.2v-.676s0-.524.6-.524zm.785 1.815V13.99a.784.784 0 0 0-.008-.148c-.07-.457-.52-.774-1.006-.709a1.01 1.01 0 0 0-.115-.01c-.524-.014-.96.374-.976.867v1.98c.135.451.593.749 1.09.707.481.04.918-.264 1.015-.708v-.554h-.73v.36s0 .353-.339.353c-.338 0-.338-.354-.338-.354v-.759h1.407z"/>
</svg>
