<svg xmlns="http://www.w3.org/2000/svg" width="20" height="20" viewBox="0 0 20 20">
    <g fill="none" fill-rule="nonzero">
        <circle cx="9.984" cy="9.984" r="9.984" fill="#B5C1CD"/>
        <path fill="#FFF" d="M13.082 7C11.633 7 10.55 8.277 10 9.11 9.45 8.276 8.369 7 6.918 7 5.308 7 4 8.346 4 10s1.309 3 2.918 3C8.37 13 9.45 11.723 10 10.89c.55.833 1.631 2.11 3.082 2.11C14.692 13 16 11.654 16 10s-1.309-3-2.918-3zm-6.165 5.1C5.805 12.1 4.9 11.159 4.9 10c0-1.159.904-2.1 2.018-2.1 1.27 0 2.259 1.543 2.572 2.1-.315.557-1.301 2.1-2.572 2.1zm6.165 0c-1.27 0-2.259-1.543-2.572-2.1.315-.557 1.301-2.1 2.572-2.1 1.112 0 2.018.941 2.018 2.1 0 1.159-.904 2.1-2.018 2.1z"/>
    </g>
</svg>
