<svg id="Слой_1" xmlns="http://www.w3.org/2000/svg" viewBox="0 0 300 300"><style>.st0{fill:#01abe8}.st0,.st1{fill-rule:evenodd;clip-rule:evenodd}.st1,.st2{fill:#fff}</style><g id="Page-1"><g id="perfect_money"><circle id="Oval-1" class="st0" cx="150" cy="150" r="150"/><path class="st1" d="M193.7,228.9h-25c2.8,15.2,16.4,26.6,32.8,26.6c7.6,0,15.2-2.5,21-7.3c0.8-0.7,2-0.5,2.6,0.3 c0.7,0.7,0.5,1.8-0.3,2.5c-6.4,5.3-14.9,8.3-23.3,8.3c-18.4,0-33.8-13.2-36.4-30.4h-6.9c-1,0-1.8-0.8-1.8-1.8s0.8-1.8,1.8-1.8 h6.4v-2c0-1.2,0-2.1,0.2-3.3h-6.6c-1,0-1.8-0.8-1.8-1.8s0.8-1.8,1.8-1.8h7.1c3.3-16.6,18.4-29.1,36.2-29.1 c8.4,0,16.9,3,23.3,8.1c0.8,0.7,1,1.8,0.3,2.6s-1.8,1-2.6,0.3c-5.8-4.8-13.4-7.4-21-7.4c-15.9,0-29.1,10.9-32.4,25.5h29.8 c1,0,1.8,0.8,1.8,1.8s-0.8,1.8-1.8,1.8h-30.4c-0.2,1.2-0.2,2.1-0.2,3.3v2h25.5c1,0,1.8,0.8,1.8,1.8S194.7,228.9,193.7,228.9 L193.7,228.9z"/><path class="st2" d="M201.5,261.3c-18.5,0-34.6-13-38.1-30.4h-5.2c-2.1,0-3.8-1.7-3.8-3.8s1.7-3.8,3.8-3.8h4.4 c0-0.5,0-0.9,0-1.3h-4.4c-2.1,0-3.8-1.7-3.8-3.8s1.7-3.8,3.8-3.8h5.5c4.2-17,19.8-29.1,37.8-29.1c8.8,0,17.7,3.1,24.5,8.5 c0.8,0.7,1.3,1.6,1.4,2.6c0.1,1.1-0.2,2.1-0.9,2.9c-0.7,0.8-1.6,1.2-2.5,1.4c-1.1,0.1-2.1-0.2-2.9-0.9 c-5.3-4.4-12.5-6.9-19.7-6.9c-13.9,0-25.8,8.7-29.8,21.5h27.2c2.1,0,3.8,1.7,3.8,3.8s-1.7,3.8-3.8,3.8h-28.6c0,0.4,0,0.8,0,1.3 h23.5c2.1,0,3.8,1.7,3.8,3.8s-1.7,3.8-3.9,3.8h-22.5c3.6,13.2,15.9,22.6,30.3,22.6c7.4,0,14.4-2.4,19.7-6.8 c0.7-0.7,1.8-1,2.8-0.9c1,0.1,1.9,0.6,2.6,1.4c0.6,0.7,0.9,1.5,0.9,2.5c0,1.1-0.5,2.1-1.4,2.9 C219.4,258.1,210.4,261.3,201.5,261.3z M223.8,249.7C223.8,249.7,223.8,249.7,223.8,249.7C223.8,249.7,223.8,249.7,223.8,249.7z M223.8,196.8C223.8,196.8,223.8,196.8,223.8,196.8C223.8,196.8,223.8,196.8,223.8,196.8z"/></g></g><path class="st2" d="M137.1,174.9v60.3H97.6v-175h61.8c44.1,0,66.2,18.6,66.2,55.8c0,17.6-6.3,31.8-19,42.7S177,175,155.9,175 h-18.8L137.1,174.9L137.1,174.9z M137.1,90.4V145h15.5c21,0,31.5-9.2,31.5-27.6c0-18-10.5-27-31.5-27H137.1z"/></svg>