<svg id="Слой_1" xmlns="http://www.w3.org/2000/svg" viewBox="0 0 300 300"><style>.st0{fill-rule:evenodd;clip-rule:evenodd;fill:#01abe8}.st1{fill:#fff}.st2{enable-background:new}</style><g id="Page-1"><g id="perfect_money"><circle id="Oval-1" class="st0" cx="150" cy="150" r="150"/><path class="st1" d="M166,247.7c-1.2,0-2.2,1-2.2,2.2s1,2.2,2.2,2.2h13.2v20.3c0,1.2,1,2.2,2.2,2.2s2.2-1,2.2-2.2v-20.3h39.3 c1.2,0,2.2-1,2.2-2.2s-1-2.2-2.2-2.2h-39.3v-12.4h19.3c12.8,0,23.2-10.5,23.2-23.2c0-12.8-10.5-23.2-23.2-23.2h-21.4 c-1.1,0-2.1,0.9-2.2,2c-0.1,0.2-0.2,0.6-0.2,0.9V231h-13.2c-1.2,0-2.2,1-2.2,2.2s1,2.2,2.2,2.2h13.2v12.4L166,247.7z M183.6,193.2h19.3c10.3,0,18.8,8.5,18.8,18.8s-8.5,18.8-18.8,18.8h-19.3V193.2L183.6,193.2z"/><path class="st1" d="M181.4,276.6c-2.3,0-4.2-1.9-4.2-4.2v-18.3H166c-2.3,0-4.2-1.9-4.2-4.2c0-2.3,1.9-4.2,4.2-4.2h0l11.1,0.1 v-8.4h-11.2c-2.3,0-4.2-1.9-4.2-4.2s1.9-4.2,4.2-4.2h11.2v-37.2c0-0.5,0.1-1,0.3-1.4c0.3-2,2.1-3.5,4.1-3.5h21.4 c13.9,0,25.2,11.3,25.2,25.2c0,13.9-11.3,25.2-25.2,25.2h-17.3v8.4h37.3c2.3,0,4.2,1.9,4.2,4.2c0,2.3-1.9,4.2-4.2,4.2h-37.3 v18.3C185.6,274.7,183.7,276.6,181.4,276.6z M166,249.7c-0.1,0-0.2,0.1-0.2,0.2s0.1,0.2,0.2,0.2h15.2v22.3 c0,0.1,0.1,0.2,0.2,0.2c0.1,0,0.2-0.1,0.2-0.2v-22.3h41.3c0.1,0,0.2-0.1,0.2-0.2c0-0.1-0.1-0.2-0.2-0.2h-41.3v-16.4h21.3 c11.7,0,21.2-9.5,21.2-21.2s-9.5-21.2-21.2-21.2h-21.4c-0.1,0-0.2,0.1-0.2,0.2l0,0.4l-0.2,0.3c0,0,0,0,0,0l0,41.2h-15.2 c-0.1,0-0.2,0.1-0.2,0.2s0.1,0.2,0.2,0.2h15.2v16.4L166,249.7z M202.9,232.8h-21.3v-41.6h21.3c11.5,0,20.8,9.3,20.8,20.8 S214.4,232.8,202.9,232.8z M185.6,228.8h17.3c9.3,0,16.8-7.5,16.8-16.8s-7.5-16.8-16.8-16.8h-17.3V228.8z"/></g></g><g class="st2"><path class="st1" d="M137.1,174.9v60.3H97.6v-175h61.8c44.1,0,66.2,18.6,66.2,55.8c0,17.6-6.3,31.8-19,42.7S177,175,155.9,175 h-18.8L137.1,174.9L137.1,174.9z M137.1,90.4V145h15.5c21,0,31.5-9.2,31.5-27.6c0-18-10.5-27-31.5-27H137.1z"/></g></svg>