<svg id="Слой_1" xmlns="http://www.w3.org/2000/svg" viewBox="0 0 300 300"><style>.st0{fill:#e33e23}.st0,.st1,.st2{fill-rule:evenodd;clip-rule:evenodd}.st1{fill:#870000}.st2{fill:#fff}</style><g id="Page-1"><g id="perfect_money"><circle id="Oval-1" class="st0" cx="150" cy="150" r="150"/><path class="st1" d="M129.02,166.95H53.75c8.47,45.86,49.35,80.25,98.7,80.25c22.93,0,45.86-7.48,63.31-21.93 c2.5-2,5.99-1.49,7.97,0.99c2,2,1.49,5.48-0.99,7.48c-19.44,15.95-44.86,24.93-70.28,24.93c-55.33,0-101.69-39.88-109.66-91.72 H21.85c-2.99,0-5.48-2.5-5.48-5.48s2.5-5.48,5.48-5.48h19.44V150c0-3.49,0-6.48,0.5-9.97H21.85c-2.99,0-5.48-2.5-5.48-5.48 c0-2.99,2.5-5.48,5.48-5.48h21.44c9.97-49.85,55.33-87.73,109.17-87.73c25.42,0,50.84,8.97,70.28,24.42 c2.5,2,2.99,5.48,0.99,7.97c-2,2.5-5.48,2.99-7.97,0.99c-17.45-14.46-40.38-22.43-63.31-22.43c-47.86,0-87.73,32.9-97.7,76.76 h89.73c2.99,0,5.48,2.5,5.48,5.48s-2.5,5.48-5.48,5.48H52.76c-0.5,3.49-0.5,6.48-0.5,9.97v5.99h76.76c2.99,0,5.48,2.5,5.48,5.48 C134.51,164.44,132.01,166.94,129.02,166.95L129.02,166.95z"/><path id="Combined-Shape" class="st2" d="M34.46,151.95c0,0,66.78,14.42,76.16-16.62c9.2-30.43-21.31-36.72-21.31-36.72H75.9 v51.02H61.54v-49.36H48.82v-5.22c0,0,48.18-0.19,53.5,0.43c26.75,3.13,39.77,51.05-3.07,60.6 C65.93,163.51,34.46,151.95,34.46,151.95z M61.46,162.94v30.63c0,0-0.08,6.52-5.96,6.52c-5.88,0-7.32,0-7.32,0v5.11h41.45v-5.62 h-9.17c0,0-4.73-0.54-4.73-5.35s0-31.57,0-31.57H61.54L61.46,162.94z M114.43,205.45h41.74v-6.4h-12c0,0-3.9-2.2-3.9-6.66 c0-4.46,0-77.08,0-77.08l46.53,90.05l45.52-88.32l-1,76.2c0,0,1.14,6.3-5.3,6.3s-7.81,0.19-7.81,0.19l-0.08,4.9h41.75v-5.83h-9.74 c0,0-4.06,0.4-4.06-4.06s0-92.48,0-92.48s0.06-2.02,3.65-2.02h8.46V94h-25.9l-42.64,88.38l-42.38-87.75h-23.18v5.28h7.36 c0,0,2.55-0.28,2.55,3.6c0,3.88-1,89.3-1,89.3s0.34,6.63-6.94,6.63c-7.28,0-11.62,0-11.62,0v6.44L114.43,205.45z"/></g></g></svg>