<svg xmlns="http://www.w3.org/2000/svg" width="20" height="20" viewBox="0 0 20 20">
    <g fill="none" fill-rule="nonzero">
        <circle cx="10" cy="10" r="10" fill="#FF8C00"/>
        <path fill="#FFF" d="M14.119 12.153c.032.25-.04.348-.119.348-.08 0-.19-.097-.31-.291-.118-.194-.166-.413-.102-.525.039-.073.126-.106.23-.065.206.081.285.396.3.533zm-1.11.55c.245.21.317.452.19.63a.415.415 0 0 1-.326.145.56.56 0 0 1-.373-.137c-.222-.194-.286-.517-.143-.695a.306.306 0 0 1 .254-.113c.127 0 .27.056.397.17zM4.374 9.31c0-3.07 2.444-5.559 5.459-5.559 3.015 0 5.46 2.489 5.46 5.559a5.671 5.671 0 0 1-.77 2.852c-.016.025-.056.017-.064-.016-.19-1.366-1.008-2.117-2.198-2.343-.103-.016-.119-.081.016-.097.365-.033.88-.024 1.15.024.016-.137.024-.283.024-.428 0-2.029-1.618-3.677-3.61-3.677-1.991 0-3.61 1.649-3.61 3.677s1.619 3.676 3.61 3.676h.167a5.049 5.049 0 0 1-.072-.993c.008-.226.056-.259.151-.082.5.882 1.214 1.674 2.61 1.988 1.143.26 2.286.558 3.516 2.15.11.137-.056.283-.183.17-1.253-1.132-2.396-1.504-3.435-1.504-1.167.009-1.96.163-2.762.163-3.015 0-5.459-2.49-5.459-5.56z"/>
    </g>
</svg>
