<svg xmlns="http://www.w3.org/2000/svg" width="20" height="20" viewBox="0 0 20 20">
    <path fill="#FFAB2B" fill-rule="nonzero" d="M17.071 2.929A9.935 9.935 0 0 0 10 0a9.935 9.935 0 0 0-7.071 2.929A9.935 9.935 0 0 0 0 10a9.934 9.934 0 0 0 2.929 7.071A9.935 9.935 0 0 0 10 20a9.935 9.935 0 0 0 7.071-2.929A9.935 9.935 0 0 0 20 10a9.934 9.934 0 0 0-2.929-7.071zm-6.443 11.423h-.042v1.296a.586.586 0 1 1-1.172 0v-1.296H8.117a.586.586 0 0 1 0-1.172h2.51c.716 0 1.298-.582 1.298-1.297s-.582-1.297-1.297-1.297H9.372a2.472 2.472 0 0 1-2.468-2.469 2.472 2.472 0 0 1 2.468-2.469h.042V4.352a.586.586 0 0 1 1.172 0v1.296h1.297a.586.586 0 0 1 0 1.172h-2.51c-.716 0-1.297.582-1.297 1.297s.581 1.297 1.296 1.297h1.256a2.472 2.472 0 0 1 2.468 2.469 2.472 2.472 0 0 1-2.468 2.469z"/>
</svg>
