<svg xmlns="http://www.w3.org/2000/svg" width="20" height="20" viewBox="0 0 20 20">
    <g fill="none" fill-rule="nonzero">
        <circle cx="9.984" cy="9.984" r="9.984" fill="#FFD000"/>
        <path fill="#FFF" d="M4.54 9.126c0-.655.056-1.07 1.412-2.083 1.122-.838 4.721-3.702 4.721-3.702v4.78h2.737v6.88H5.395a.858.858 0 0 1-.855-.854V9.126z"/>
        <path fill="#D8B100" d="M10.673 8.122v2.77l-5.029 3.426 6.358-2.069V8.122z"/>
        <path fill="#1D1D1B" d="M8.375 7.979c.293-.35.724-.475.96-.277.235.198.188.643-.106.993s-.724.474-.96.276c-.235-.197-.188-.642.106-.992"/>
    </g>
</svg>
