<svg xmlns="http://www.w3.org/2000/svg" xmlns:xlink="http://www.w3.org/1999/xlink" width="20" height="20" viewBox="0 0 20 20"><defs><path id="a" d="M19.775 16.278c.64 1.111-.164 2.5-1.444 2.5H1.67c-1.283 0-2.084-1.391-1.444-2.5L8.556 1.833c.642-1.112 2.248-1.11 2.888 0l8.33 14.445zM10 13.292a1.597 1.597 0 1 0 0 3.194 1.597 1.597 0 0 0 0-3.194zM8.484 7.55l.257 4.723a.417.417 0 0 0 .416.394h1.686a.417.417 0 0 0 .416-.394l.257-4.723a.417.417 0 0 0-.416-.439H8.9c-.24 0-.43.2-.416.44z"/></defs><g fill="none" fill-rule="evenodd"><mask id="b" fill="#778CA2"><use xlink:href="#a"/></mask><use fill="#fff" fill-rule="nonzero" xlink:href="#a"/><g fill="#fff" mask="url(#b)"><path d="M-1-1h22v22H-1z"/></g></g></svg>