<svg id="Layer_3" xmlns="http://www.w3.org/2000/svg" viewBox="0 0 1505.34 729.84"><style>.st0{fill:#fff}.st1{fill:#0068bc}.st2{fill:#999}.st3{fill:#b3ebff}.st4{fill:#54bdff}.st5{fill:#b3b3b3}.st6{fill:#ccc}.st7{fill:#666}.st8{fill:#83dfff}.st9{fill:#29abe2}.st10{fill:#333}.st11{fill:#82dfff}.st12{fill:#a8e9ff}.st13{fill:#81ddff}.st14{fill-rule:evenodd;clip-rule:evenodd;fill:#0073da}.st15{opacity:.67;fill:#009ade}</style><path class="st0" d="M385.56 149.97L372.47 90.19 389.78 80.19 423.78 73.94 437.33 140.98z"/><path class="st1" d="M150.07,298.71c5.8-5.4,11.37-10.59,17.15-15.32c-15.08-5.2-21.35-18.31-23.94-28.3 c-8.51,8.69-16.8,17.99-24.63,27.61c-4.06,5-8.01,10.08-11.79,15.2c-14.8,20.06-27.19,40.78-35.17,59.61 c-5.03,11.86-6.2,20.34-3.58,25.93c3.37,7.2,15.29,14.66,23.26,14.17c3.23-0.2,6.95-0.66,9.63-2.63c1.8-1.32,1.97-3.38,3.37-4.81 c2.41-2.44,2.19,0.49,4.37,0.76c4.58,0.55,5.19-5.66,5.2-8.7c0.02-6.95-2.27-14.84-3.77-21.64c-2.3-10.42-2.24-15.89,7.78-28.16 c2.73-3.34,5.6-6.68,8.64-10.06c3.45-3.82,7.13-7.7,11.11-11.7C141.53,306.82,145.63,302.85,150.07,298.71z"/><path class="st1" d="M479.5,293.19c16.98-17,29.93-34.98,31.38-51.13c-3.43,9.71-9.26,18.33-22.79,21.48 c-6.72,1.56-14.98,2.39-23.86,2.39c-2.01,0-4.09-0.04-6.23-0.13c-0.17,5.55-1.9,12.83-7.8,20.49 c-16.38,21.28-42.76,50.68-77.32,73.16c-22.21,4.68-49.23,8.66-73.15,7.31c32.67-37.26,43.43-70.96,46.97-88.53 c2.6-12.92,3.29-25.77,1.49-38.83c-1.34-9.78-4.19-19.32-8.01-28.41c-8.75-10.52-16.3-22.85-22.02-37.26 c-1.89,0.59-3.78,1.16-5.66,1.72c-6.54,1.94-13.06,3.74-19.54,5.46c-3.44,0.91-6.86,1.8-10.27,2.68 c6.51,5.9,38.13,37.6,27.35,87.49c-8.84,40.89-30.78,74.68-41.71,89.62c-20.79-7.93-29.33-21.94-32.78-33.31 c-3.59,17.69-1.3,32.32,13.27,40.79c35.29,20.51,90.61,19.23,125.94-2.9c12.99-8.13,41.55-24.72,65.02-38.24 c5.75-3.32,11.21-6.45,16.04-9.22c11.55-6.63,30.64-18.27,36.31-22.13C487.91,295.19,483.55,294.25,479.5,293.19z"/><path class="st1" d="M448.65,334.46c-0.05,0.04-0.11,0.08-0.16,0.12c-2.78,1.99-5.44,3.9-8.02,5.75 c-1.66,1.45-3.32,2.89-4.98,4.34c-1.43,1.25-2.86,2.5-4.29,3.75c0.66,5.96,1.65,13.36,3.47,19.76c2.02,7.14,4.82,11.87,7.48,12.66 c5.33,1.58,22.5-5.88,24.83-10.79c2.8-5.91-0.46-10.61-8.02-19.21C454.99,346.34,450.11,340.79,448.65,334.46z"/><path class="st1" d="M184,447.46c-1.73,2.57-8.59,12.3-17.77,19.55l-5.05,4.71c0,0,3.61,3.32,9.01,0.73 c17.74-8.48,25.12-23.96,25.12-23.96l4.53-0.34c0.39-0.03,27.7-2.23,62.5-13.1c-5.55-0.84-9.89-2.09-13.08-3.29 C230.78,437.84,209.13,443.36,184,447.46z"/><path class="st1" d="M181.1,439.48c0,0,0.2-0.04,0.59-0.11c3.8-0.6,25.61-4.21,51.84-11.25c-24.75-2.65-33.02-18.84-35.76-30.23 c-13.11,12.82-29.54,25.82-48.44,34.36c-7.69,11-16.47,28.83-12.8,35.86c0.64,1.23,1.25,1.53,2.2,1.68 c2.1,0.32,6.59-0.16,9.46-1.31c5.17-2.08,14.15-9.12,16.65-11.35C168.95,453.45,174.52,447.82,181.1,439.48z"/><path class="st2" d="M510.32,136.59c0.96-22.99-1.55-45.87-2.96-56.5l-2.46-0.71c-1.33-0.38-3.33-0.9-6-1.45 c0.53,7.1,2.34,34.12,1.45,57.84C503.62,135.98,506.94,136.24,510.32,136.59z"/><path class="st3" d="M189.34,332.42c-6.44,2.57-13.98,4.42-22.38,4.42c-8.07,0-16.93-1.71-26.36-6.09 c-3.68,3.99-7.07,7.89-10.26,11.79c-5.85,7.16-6.02,7.86-4.73,13.75l4.4-3.05l16.47,23.79l19.51-37.24l28.8,14.4L189.34,332.42z"/><path class="st3" d="M103.26,252.64l-34.08-19.68l21.3,40.4l-49.52,31.36l36.17,8.32c7.31-11.75,15.61-23.53,24.6-34.96 c-0.24-2.43-0.37-4.91-0.38-7.45C101.35,263.94,102.19,257.77,103.26,252.64z"/><path class="st3" d="M116,647.04c-29.67-24.43-49.79-51.37-59.79-80.06c-16.51-47.38-5.72-99.21,32.07-154.38 c-1.78-0.39-3.61-0.85-5.49-1.42c-15.17-4.58-24.72-11.44-29.17-20.94c-2.56-5.47-3.41-11.63-2.54-18.74 c-3.95,8.13-7.93,17.11-11.62,26.74C24.4,437.52,11.05,496.24,33,552.93c16.43,42.45,49.87,78.21,99.94,107.06 C126.98,655.75,121.33,651.44,116,647.04z"/><path class="st4" d="M211.96,356.95l-8.11-32.42c0,0-9.11,6.34-14.52,7.9l5.45,21.79l-28.8-14.4l-19.51,37.24l-16.47-23.79 l-4.4,3.05c0,0,3.38,14.98,2.85,22.83l19.92,28.77l24.49-46.76l25.48,12.74C203.53,369.54,211.96,356.95,211.96,356.95z"/><path class="st4" d="M88.28,412.6c-37.79,55.17-48.59,107-32.07,154.38c10,28.69,30.12,55.63,59.79,80.06 c5.34,4.39,10.98,8.71,16.94,12.95C82.87,631.13,49.43,595.37,33,552.93c-21.94-56.68-8.6-115.41,6.46-154.69 c3.69-9.64,7.67-18.61,11.62-26.74c0.9-27.74,26.06-58.46,26.06-58.46l-36.17-8.32l49.52-31.36l-21.3-40.4l34.08,19.68 c1.08-6.34,4.79-15.71,4.79-15.71l-78.89-45.57l40.28,76.38L0,311.71l58.77,13.51c-8.23,12.61-22.35,36.37-34.08,66.83 C1.5,452.28-0.79,509.88,18.04,558.61c10.19,26.37,26.33,50.28,48.32,71.69c20.5,17.8,98.4,76.89,251.85,100.35l0.03-0.15 c-25.8-5.39-201-46-244.81-162.02c-2.5-6.63-4.25-12.51-5.33-17.74c-10.2-41.95,3.16-88.29,39.81-138.13 c0.21-0.06,0.42-0.13,0.63-0.2c-0.08,0.02-0.15,0.03-0.23,0.05C97.3,415.48,88.28,412.6,88.28,412.6z"/><path class="st5" d="M160.89,217.38c3.89-3.13,7.85-6.03,11.86-8.74c-9.97-10.11-17.41-22.76-21.26-36.93l-29.21,72.69 c-0.26,0.62-2.48,6.01-3.87,13.75C131.89,243.05,146.33,229.09,160.89,217.38z"/><path class="st6" d="M263.99,139.1c-0.79-13.74-12.18-24.51-25.93-24.51c-0.5,0-1.02,0.01-1.52,0.04 c-6.86,0.39-12.96,3.44-17.35,8.07c-1.61,4.29-2.38,8.98-2.1,13.84c0.8,13.91,9.91,25.49,22.33,30.01c0.04,0,0.07,0,0.11,0 C253.84,165.72,264.81,153.41,263.99,139.1z"/><path class="st5" d="M232.61,81.67c-1.32,0-2.65,0.04-3.97,0.11c-9.39,0.54-18.21,3-26.15,6.94 c-22.88,12.04-37.91,36.66-36.33,64.11c1.06,18.43,9.43,34.81,22.16,46.4c-0.49,0.26-0.98,0.51-1.47,0.78 c14.69-8.13,29.96-14.13,45.39-19.08c-17.38-7.07-29.98-23.66-31.12-43.47c-1.58-27.52,19.52-51.21,47.05-52.79 c0.96-0.06,1.94-0.08,2.91-0.08c0.44,0,0.87,0.02,1.31,0.03C246.11,82.71,239.47,81.67,232.61,81.67z M177.38,153.1 c-1.84,0.27-3.6-1.29-3.91-3.48c-0.32-2.19,0.92-4.18,2.77-4.44c1.84-0.27,3.6,1.29,3.91,3.48 C180.46,150.85,179.22,152.84,177.38,153.1z M183.02,118.64c-0.89,2.02-2.58,3.23-3.78,2.71c-1.2-0.53-1.45-2.59-0.57-4.62 c0.89-2.02,2.58-3.23,3.78-2.71C183.65,114.55,183.91,116.62,183.02,118.64z M190.76,187.48c-2.21,0-4-1.79-4-4s1.79-4,4-4 s4,1.79,4,4S192.97,187.48,190.76,187.48z M203.93,97.11c-2.07,0.78-4.08,0.53-4.49-0.57c-0.41-1.1,0.92-2.62,2.99-3.4 c2.07-0.78,4.08-0.53,4.49,0.57C207.33,94.81,206,96.33,203.93,97.11z"/><path class="st7" d="M284.98,132.64c-1.03-17.97-15.93-32.05-33.91-32.05c-0.66,0-1.33,0.02-1.99,0.06 c-13.85,0.8-25.31,9.83-29.89,22.06c4.4-4.63,10.49-7.68,17.35-8.07c0.51-0.03,1.02-0.04,1.52-0.04 c13.75,0,25.14,10.77,25.93,24.51c0.82,14.31-10.15,26.63-24.46,27.45c-0.04,0-0.07,0-0.11,0c3.62,1.32,7.52,2.04,11.58,2.04 c0.66,0,1.33-0.02,1.99-0.06C271.7,167.46,286.05,151.35,284.98,132.64z"/><path class="st7" d="M160.98,310.41c-2.92,2.73-5.69,5.37-8.32,7.95c12.31,4.17,24.53,3.02,36.45-3.48 c11.48-6.27,18.68-15.42,19.13-16.01l16.26-22.59c-0.84,0.07-1.69,0.13-2.53,0.21C195.77,279.04,182.39,290.46,160.98,310.41z"/><path class="st7" d="M172.75,208.64c-4.77-4.83-8.94-10.25-12.44-16.12l-16.12,39.31c5.51-5.1,11.09-9.94,16.69-14.45 C164.78,214.25,168.74,211.35,172.75,208.64z"/><path class="st7" d="M232.24,180.93c-16.95-6.89-29.35-22.84-31.01-42.01c-9.81,7.09-23.69,18.6-31.62,31.72 c3.75,11.1,10.25,20.9,18.7,28.58c-0.49,0.26-0.98,0.51-1.47,0.78C201.54,191.87,216.8,185.88,232.24,180.93z M186.76,183.48 c0-2.21,1.79-4,4-4s4,1.79,4,4s-1.79,4-4,4S186.76,185.69,186.76,183.48z"/><path class="st7" d="M300.42,145.77c-0.04-0.78-0.12-1.55-0.19-2.32c-1.43,7.95-4.76,15.29-9.52,21.5 c2.87-0.76,5.73-1.54,8.61-2.34C300.37,157.13,300.75,151.49,300.42,145.77z"/><path class="st8" d="M249.25,431.78c3.19,1.19,7.53,2.44,13.08,3.29c-2.16,0.67-4.29,1.31-6.38,1.92 c17.18-4.99,36.61-12.12,55.73-22.25c12.69-6.72,24.28-13.61,35.04-20.62c-8.67,2.2-17.64,3.63-26.67,4.29 C306.14,407.78,283.05,420.69,249.25,431.78z"/><path class="st8" d="M328.44,154.09c1.38,4.92,2.98,9.6,4.78,14.05c25.73,63.76,91.84,81.8,131.01,81.8 c7.68,0,14.68-0.68,20.24-1.98c6.99-1.63,9.84-5.15,12.71-15.71c3.27-12.04,6.45-28.64,8.89-47.06c-0.01,0-0.02-0.01-0.02-0.01 l0.03-0.04c1.81-13.66,3.21-28.32,3.94-42.88c-16.06-1.67-29.19-1.57-40.38-0.45c-23.61-0.21-67.16,13.33-84.88,12.68 c-12.95-0.48-20.72-5.79-24.06-8.73c-8.46-12.52-7.72-30.76-5.59-38.61c6.24-22.93,37.51-31.89,56.98-34.66 c45.35-6.45,78.86-3,94.37,1.46c-6.89-30.4-38.67-46.14-64.26-54c-8.06-2.48-16.41-3.8-24.81-3.92C416.95,16,416.5,16,416.05,16 c-9.86,0-19.56,1.64-28.83,4.86c-35.53,12.35-75.16,42.87-62.19,118.11C325.94,144.24,327.08,149.27,328.44,154.09z"/><path class="st8" d="M233.52,428.12c24.67-6.62,53.24-16.26,74.42-29.27c-7.38-0.03-14.73-0.58-21.93-1.64 c-15.94-2.35-31.24-7.06-45.23-15.19c-6.96-4.04-12.32-9.15-16.1-15.29c-2.13,2.92-4.73,6.33-7.76,10.08 c-1.18,1.46-2.42,2.96-3.73,4.5c-4.43,5.22-9.61,10.89-15.43,16.58C200.5,409.28,208.77,425.46,233.52,428.12z"/><path class="st8" d="M167.22,283.39c14.27-11.68,29.81-20.54,53.2-22.82c5.37-0.52,10.77-0.86,16.18-1.1 c6.69-0.29,13.38-0.41,20.03-0.45c5.29-0.03,10.56-0.01,15.77,0.01c3.54,0.01,7.08,0.03,10.62,0.03c4.42,0,8,3.58,8,8 c0,4.42-3.58,8-8,8c-3.56,0-7.12-0.02-10.68-0.03c-5.88-0.03-11.83-0.05-17.79,0c-1.24,3.02-2.61,6.23-4.05,9.58 c-7.83,18.24-14.68,35.83-16.14,50.64c0.25-2.54,0.66-5.17,1.21-7.87c3.45,11.37,11.99,25.38,32.78,33.31 c10.93-14.95,32.86-48.73,41.71-89.62c10.79-49.89-20.84-81.59-27.35-87.49c0,0,0,0,0,0c-1.56,0.4-3.12,0.81-4.67,1.2 c-26.75,6.88-52.48,13.5-76.39,25.46c-5.44,2.72-10.79,5.72-16.03,9.06c-4.99,3.18-9.89,6.67-14.69,10.53 c-9.28,7.47-18.59,16.01-27.64,25.24C145.87,265.08,152.14,278.19,167.22,283.39z"/><path class="st9" d="M484.47,247.96c6.99-1.63,9.84-5.15,12.71-15.71c3.27-12.04,6.45-28.64,8.89-47.06 c-0.01,0-0.02-0.01-0.02-0.01l0.03-0.04c1.81-13.66,3.21-28.32,3.94-42.88c-16.06-1.67-29.19-1.57-40.38-0.45 c-0.41,0-0.85,0.01-1.27,0.01c3.06,77.17-16.51,104.2-31.03,105.61c9.71,1.75,18.87,2.51,26.9,2.51 C471.92,249.94,478.91,249.26,484.47,247.96z"/><path class="st9" d="M445.66,31.23c7.23,11.33,10.22,24.62,12.29,37.7c22.18-0.16,38.85,2.23,48.52,5.01 c-6.89-30.4-38.67-46.14-64.26-54c-5.62-1.72-11.37-2.87-17.18-3.46C432.98,20.15,441.02,23.96,445.66,31.23z"/><path class="st9" d="M450.2,286.3c5.9-7.67,7.63-14.94,7.8-20.49c0,0,0,0,0.01,0c-16.87-0.71-37.28-4.31-57.58-12.31 c-3.59,13.64-17.06,58.73-44,83.98c-13.18,12.36-24.15,21.99-32.5,29.06c16.89-1.1,34.01-3.92,48.96-7.08 C407.44,336.98,433.82,307.58,450.2,286.3z"/><path class="st9" d="M520.41,197.58c-2.43,15.86-5.25,29.48-7.79,38.86c-0.25,0.92-0.51,1.83-0.79,2.74 c-0.02,0.05-0.03,0.11-0.05,0.16c-0.28,0.92-0.58,1.83-0.89,2.73c-1.45,16.15-14.41,34.13-31.38,51.13c0,0,0.01-0.01,0.01-0.01 c4,1.06,8.3,1.98,12.48,2.48l0.21-0.02c19.77-13.5,41.16-31.12,45.39-51.77C541.52,224.72,530.49,208.18,520.41,197.58z"/><path class="st8" d="M340.19,211c3.82,9.09,6.66,18.63,8.01,28.41c1.8,13.06,1.11,25.91-1.49,38.83 c-3.54,17.56-14.3,51.27-46.97,88.53c5.07,0.29,10.28,0.33,15.55,0.18c4.91-0.14,10.7-0.55,8.65-0.41 c8.35-7.07,19.32-16.7,32.5-29.06c26.94-25.25,40.41-70.34,44-83.98c0,0,0.01,0,0.01,0C378.75,244.97,357.18,231.42,340.19,211z"/><path class="st10" d="M523.06,178.05c1.28-10.86,2.31-22.31,2.93-33.84c0.35-6.48,0.57-12.99,0.63-19.44 c0.18-18.99-1-37.46-4.26-53.18c-8.04-38.67-45.47-57.76-75.45-66.96c-9.51-2.92-19.35-4.47-29.26-4.63 c-12.19-0.19-24.21,1.75-35.68,5.74c-29.58,10.29-74.88,37.01-75.45,104.13c-14.23-26.39-42.11-44.2-73.9-44.2 c-1.62,0-3.27,0.05-4.89,0.14c-38.1,2.19-68.85,29.59-77.02,65.02l-0.02-0.01l-42.62,106.1c0,0-3.71,9.37-4.79,15.71 c-1.07,5.13-1.91,11.3-1.9,17.99c0,2.54,0.13,5.02,0.38,7.45c-8.99,11.43-17.29,23.21-24.6,34.96c0,0-25.16,30.72-26.06,58.46 c-0.87,7.12-0.03,13.27,2.54,18.74c4.46,9.51,14,16.36,29.17,20.94c1.88,0.57,3.71,1.04,5.49,1.42c0,0,9.02,2.88,20.02-0.12 c0.08-0.02,0.15-0.04,0.23-0.05c3.48-1.07,6.6-2.75,9.32-5.08c6.83-5.87,10.36-15.05,10.58-27.34c0-0.3,0-0.59,0.02-0.87 c0.53-7.85-2.85-22.83-2.85-22.83c-1.29-5.89-1.11-6.59,4.73-13.75c3.19-3.9,6.58-7.8,10.26-11.79c9.43,4.38,18.29,6.09,26.36,6.09 c8.41,0,15.95-1.85,22.38-4.42c5.41-1.55,14.52-7.9,14.52-7.9c10.72-7.48,16.93-15.71,17.24-16.12l5.6-7.79 c-3.67,9.96-6.8,20.46-8.08,30.68c-0.78,6.21-0.82,11.98-0.13,17.29l-0.52-0.32c-0.08,0.13-2.18,3.47-6.01,8.69 c0,0-8.43,12.59-13.61,16.94c-13.68,15.57-33.69,34.36-57.42,44.58l-1.99,0.85l-1.28,1.74c-4.28,5.79-25.14,35.64-15.33,54.46 c3.17,6.07,8.67,9.72,15.48,10.27c4.21,0.35,8.62-0.53,12.83-2.02c0.18,0.75,0.43,1.48,0.76,2.18c1.71,3.59,5.14,5.84,9.41,6.17 c0.32,0.02,0.64,0.04,0.97,0.04c7.6,0,17.91-6.35,25.36-11.81c3.15-2.3,12.52-9.45,17.89-16.61c14.41-1.56,64.54-8.61,114.13-34.86 c40.98-21.7,70.64-44.92,97.55-67.93c2.45,15.01,7.54,31.26,20.87,35.22c1.82,0.54,3.88,0.79,6.08,0.79 c13.59,0,32.79-9.59,37.76-20.06c7.62-16.07-3.26-28.44-10.46-36.63c-2.85-3.24-7.11-8.08-6.59-9.69c1.73-1.8,8.73-5.09,12.13-6.7 c3.21-1.51,5.97-2.81,7.96-4.08l0.37-0.23c24.55-15.68,61.64-39.37,68.43-72.5C559.98,214.34,536.29,189.21,523.06,178.05z M387.21,20.86c9.27-3.23,18.98-4.86,28.83-4.86c0.45,0,0.9,0,1.35,0.01c8.4,0.13,16.74,1.45,24.81,3.92 c25.6,7.86,57.37,23.6,64.26,54c-15.51-4.46-49.02-7.91-94.37-1.46c-19.47,2.77-50.75,11.74-56.98,34.66 c-2.13,7.85-2.88,26.09,5.59,38.61c3.34,2.94,11.12,8.25,24.06,8.73c17.72,0.66,61.27-12.89,84.88-12.68 c11.19-1.12,24.31-1.22,40.38,0.45c-0.73,14.56-2.13,29.22-3.94,42.88l-0.03,0.04c0,0,0.01,0.01,0.02,0.01 c-2.44,18.43-5.63,35.03-8.89,47.06c-2.87,10.56-5.72,14.08-12.71,15.71c-5.55,1.29-12.55,1.98-20.24,1.98 c-39.18,0-105.28-18.04-131.01-81.8c-1.8-4.46-3.4-9.14-4.78-14.05c-1.35-4.81-2.5-9.85-3.41-15.12 C312.06,63.73,351.69,33.22,387.21,20.86z M414.98,77.81c2.84-0.39,5.66-0.74,8.46-1.06l11.85,63.71 c-2.68,0.52-5.38,1.06-8.08,1.61L414.98,77.81z M419.18,143.71c-12.82,2.62-24.74,4.96-32.33,5.11l-12.37-57.68 c10.46-6.94,24.12-10.46,32.85-12.12L419.18,143.71z M300.23,143.45c0.07,0.77,0.15,1.54,0.19,2.32c0.33,5.71-0.05,11.36-1.1,16.84 c-2.87,0.8-5.74,1.58-8.61,2.34C295.48,158.74,298.8,151.4,300.23,143.45z M284.98,132.64c1.08,18.72-13.28,34.82-31.99,35.9 c-0.66,0.04-1.33,0.06-1.99,0.06c-17.98,0-32.87-14.08-33.9-32.05c-1.08-18.72,13.27-34.82,31.99-35.9 c0.66-0.04,1.33-0.06,1.99-0.06C269.05,100.59,283.95,114.67,284.98,132.64z M228.63,81.79c1.32-0.08,2.66-0.11,3.97-0.11 c6.87,0,13.51,1.03,19.78,2.95c-0.44-0.01-0.87-0.03-1.31-0.03c-0.96,0-1.94,0.03-2.91,0.08c-27.52,1.58-48.63,25.26-47.05,52.79 c1.14,19.81,13.74,36.41,31.12,43.47c-15.43,4.95-30.7,10.94-45.39,19.08c-12.76-11.59-21.14-27.98-22.2-46.43 C162.5,116.15,191.2,83.94,228.63,81.79z M122.28,244.41l29.21-72.69c3.85,14.17,11.28,26.81,21.26,36.93 c-4.01,2.71-7.97,5.61-11.86,8.74c-14.56,11.71-29,25.67-42.47,40.78C119.8,250.41,122.02,245.03,122.28,244.41z M208.24,298.87 c-0.45,0.59-7.65,9.74-19.13,16.01c-11.92,6.51-24.14,7.65-36.45,3.48c2.63-2.58,5.4-5.22,8.32-7.95 c21.41-19.96,34.79-31.37,60.98-33.92c0.84-0.08,1.69-0.14,2.53-0.21L208.24,298.87z M148.18,468.48 c-2.87,1.15-7.36,1.63-9.46,1.31c-0.95-0.15-1.55-0.45-2.2-1.68c-3.67-7.03,5.11-24.87,12.8-35.86 c27.3-12.34,49.45-33.97,63.87-50.95c1.31-1.54,2.55-3.04,3.73-4.5c3.03-3.74,5.63-7.16,7.76-10.08 c3.78,6.13,9.14,11.24,16.1,15.29c13.98,8.13,29.29,12.84,45.23,15.19c7.2,1.06,14.55,1.61,21.93,1.64 c-43.71,26.84-118.9,39.36-126.27,40.52c-0.38,0.08-0.59,0.11-0.59,0.11c-6.57,8.34-12.14,13.97-16.27,17.65 C162.33,459.36,153.35,466.4,148.18,468.48z M311.69,414.74c-54.42,28.81-111.29,33.38-111.85,33.43l-4.53,0.34 c0,0-7.38,15.47-25.12,23.96c-5.4,2.58-9.01-0.73-9.01-0.73l5.05-4.71c9.17-7.25,16.03-16.98,17.77-19.55 c71.12-11.61,114.54-34.56,136.06-49.05c9.04-0.66,18-2.09,26.67-4.29C335.96,401.13,324.38,408.02,311.69,414.74z M466.97,370.05 c-2.33,4.91-19.5,12.37-24.83,10.79c-2.66-0.79-5.46-5.52-7.48-12.66c-1.82-6.41-2.81-13.8-3.47-19.76 c1.43-1.25,2.86-2.5,4.29-3.75c1.66-1.45,3.32-2.89,4.98-4.34c2.58-1.85,5.24-3.76,8.02-5.75c0.05-0.04,0.11-0.08,0.16-0.12 c1.46,6.32,6.34,11.87,10.3,16.38C466.52,359.44,469.78,364.14,466.97,370.05z M537.59,243.86c-4.23,20.65-25.62,38.27-45.39,51.77 c-5.6,3.82-24.78,15.53-36.37,22.18c-24.56,14.09-64.9,37.34-81.07,47.47c-35.33,22.13-90.65,23.41-125.94,2.9 c-25.28-14.69-13.64-47.91,1.67-83.56c1.44-3.35,2.81-6.56,4.05-9.58c5.96-0.05,11.91-0.03,17.79,0c3.56,0.01,7.13,0.03,10.68,0.03 c4.42,0,8-3.58,8-8c0-4.42-3.58-8-8-8c-3.54,0-7.08-0.02-10.62-0.03c-5.21-0.02-10.48-0.04-15.77-0.01 c-6.65,0.03-13.35,0.16-20.03,0.45c-5.41,0.24-10.81,0.58-16.18,1.1c-32.86,3.2-50.23,19.39-70.34,38.14 c-4.44,4.14-8.54,8.11-12.38,11.96c-3.98,4-7.66,7.88-11.11,11.7c-0.35,0.39-0.69,0.77-1.03,1.16c-2.66,2.98-5.19,5.94-7.61,8.9 c-10.02,12.27-10.08,17.74-7.78,28.16c1.5,6.79,3.78,14.69,3.77,21.64c-0.01,3.04-0.62,9.25-5.2,8.7c-2.18-0.26-1.96-3.2-4.37-0.76 c-1.4,1.42-1.57,3.48-3.37,4.81c-2.68,1.97-6.4,2.43-9.63,2.63c-7.97,0.49-19.89-6.97-23.26-14.17 c-2.62-5.59-1.45-14.07,3.58-25.93c7.98-18.83,20.37-39.55,35.17-59.61c3.78-5.13,7.72-10.21,11.79-15.2 c16.15-19.85,34.26-38.36,52.27-52.86c4.8-3.86,9.7-7.34,14.69-10.53c5.24-3.34,10.59-6.34,16.03-9.06 c23.92-11.97,49.64-18.58,76.39-25.46c4.93-1.27,9.92-2.56,14.93-3.88c6.48-1.72,13.01-3.51,19.54-5.46 c1.89-0.56,3.78-1.13,5.66-1.72c28.53,71.88,102.37,92.2,146.06,92.2c8.89,0,17.14-0.83,23.86-2.39 c16.11-3.75,21.3-15.24,24.52-27.1c2.55-9.38,5.36-23,7.79-38.86C530.49,208.18,541.52,224.72,537.59,243.86z"/><path class="st0" d="M754.13,224.22l40.44,1.05c-2.66,20.93-9.91,37.11-21.74,48.52c-11.83,11.42-27.26,17.13-46.29,17.13 c-19.35,0-35.54-6.48-48.57-19.46c-13.04-12.97-19.55-29.07-19.55-48.29c0-19.35,6.64-35.62,19.93-48.81 c13.29-13.19,29.67-19.79,49.14-19.79c19.16,0,35.14,6.47,47.95,19.41c8.88,8.94,15.16,21.41,18.84,37.39l-41.39,2.76 c-4.63-14.21-13.42-21.31-26.36-21.31c-8.25,0-15.05,2.85-20.41,8.56c-5.36,5.71-8.04,12.97-8.04,21.79c0,8.5,2.63,15.53,7.9,21.07 c5.26,5.55,11.92,8.33,19.98,8.33c8.18,0,14.7-2.44,19.55-7.33C750.37,240.37,753.24,233.36,754.13,224.22z"/><path class="st0" d="M862.21,191.88v38.06c-2.47-1.39-4.73-2.09-6.76-2.09c-6.47,0-9.7,4.95-9.7,14.84v45h-35.58v-51.85 c0-13.7,3.74-24.63,11.23-32.78c7.48-8.15,17.47-12.23,29.97-12.23C854.16,190.83,857.77,191.18,862.21,191.88z"/><path class="st0" d="M884.95,329.27v-30.92c4.82,2.03,9.04,3.04,12.65,3.04c11.54,0,19.03-6.5,22.45-19.5 c-6.22,3.68-12.31,5.52-18.27,5.52c-8.82,0-16.08-3.28-21.79-9.85c-5.71-6.57-8.56-14.92-8.56-25.07v-59.66h35.58v51 c0,5.65,2.35,8.47,7.04,8.47c4.5,0,6.76-3.11,6.76-9.32v-50.14h35.58v84.68c0,15.79-4.44,28.54-13.32,38.25 c-10.59,11.54-23.41,17.32-38.44,17.32C898.05,333.07,891.49,331.8,884.95,329.27z"/><path class="st0" d="M1010.64,322.8h-35.58v-79.16c0-14.52,3.81-26.36,11.42-35.49c4.38-5.26,9.94-9.45,16.7-12.56 c6.75-3.11,13.68-4.66,20.79-4.66c14.14,0,26.07,4.76,35.77,14.27c9.7,9.51,14.56,21.19,14.56,35.01 c0,13.45-4.82,25.06-14.46,34.82c-9.64,9.77-21.06,14.65-34.25,14.65c-2.16,0-5.33-0.22-9.51-0.67v-39.2 c2.92,2.35,5.84,3.52,8.75,3.52c3.68,0,6.83-1.36,9.47-4.09c2.63-2.73,3.95-5.96,3.95-9.7c0-3.74-1.36-6.93-4.09-9.56 c-2.73-2.63-5.99-3.95-9.8-3.95c-9.13,0-13.7,6.31-13.7,18.93V322.8z"/><path class="st0" d="M1121.58,157.81v36.35h15.98v37.58h-15.98c0,7.55,1.19,12.75,3.57,15.6c2.38,2.85,6.74,4.28,13.08,4.28v37.39 c-1.84,0.06-3.2,0.1-4.09,0.1c-8.06,0-15.65-1.87-22.79-5.61c-7.14-3.74-12.86-8.82-17.17-15.22c-5.46-8.18-8.18-19.03-8.18-32.54 v-77.92H1121.58z"/><path class="st0" d="M1200.08,190.83c13.45,0,24.98,4.84,34.58,14.51c9.61,9.67,14.42,21.27,14.42,34.78 c0,13.7-4.87,25.37-14.61,35.01c-9.74,9.64-21.49,14.46-35.25,14.46c-13.76,0-25.53-4.84-35.3-14.51 c-9.77-9.67-14.65-21.33-14.65-34.97c0-13.89,4.88-25.58,14.65-35.06C1173.69,195.57,1185.74,190.83,1200.08,190.83z M1199.13,225.94c-3.81,0-7.04,1.38-9.7,4.14c-2.66,2.76-4,6.14-4,10.13c0,3.93,1.35,7.3,4.04,10.09c2.69,2.79,5.91,4.19,9.66,4.19 c3.81,0,7.06-1.39,9.75-4.19c2.69-2.79,4.04-6.15,4.04-10.09c0-4-1.33-7.37-4-10.13C1206.26,227.32,1202.99,225.94,1199.13,225.94z"/><path class="st11" d="M1303.69,157.81v87.53c0,13.19-3.74,24.09-11.23,32.68c-7.48,8.6-16.97,12.89-28.45,12.89 c-3.36,0-7.29-0.73-11.8-2.19v-37.39c1.9,0.83,3.65,1.24,5.23,1.24c5.07,0,7.61-4.09,7.61-12.27v-82.49H1303.69z"/><path class="st11" d="M1395.13,208.34v28.92h-25.21c-3.43,0-5.85,0.51-7.28,1.52c-1.43,1.02-2.14,2.73-2.14,5.14 c0,2.73,0.73,4.52,2.19,5.38c1.46,0.86,4.44,1.28,8.94,1.28h25.97v37.11h-30.35c-14.27,0-25.18-3.41-32.73-10.23 c-7.55-6.82-11.32-16.67-11.32-29.54v-50.9c0-12.43,3.57-22.07,10.7-28.92c7.14-6.85,17.17-10.28,30.11-10.28h33.59v37.3h-24.64 c-6.66,0-9.99,2.16-9.99,6.47c0,2.54,0.79,4.3,2.38,5.28c1.58,0.98,4.41,1.47,8.47,1.47H1395.13z"/><path class="st11" d="M1476.29,195.11v92.58h-38.63v-92.58h-29.59v-37.3h97.72v37.3H1476.29z"/><path class="st12" d="M711.36,402.05h5.07v19.08c-2.33,2.05-5.1,3.62-8.29,4.72c-3.19,1.1-6.55,1.64-10.07,1.64 c-5,0-9.5-1.1-13.5-3.29c-4-2.19-7.14-5.23-9.43-9.11c-2.29-3.88-3.43-8.23-3.43-13.04c0-4.81,1.14-9.16,3.43-13.04 c2.29-3.88,5.43-6.92,9.43-9.11c4-2.19,8.53-3.29,13.58-3.29c3.81,0,7.31,0.61,10.5,1.82c3.19,1.21,5.88,3.01,8.07,5.39l-3.29,3.36 c-3.95-3.91-8.98-5.86-15.08-5.86c-4.05,0-7.71,0.89-10.97,2.68c-3.26,1.79-5.82,4.26-7.68,7.43c-1.86,3.17-2.79,6.71-2.79,10.61 c0,3.91,0.93,7.43,2.79,10.57c1.86,3.14,4.41,5.62,7.64,7.43c3.24,1.81,6.88,2.72,10.93,2.72c5.14,0,9.5-1.29,13.08-3.86V402.05z"/><path class="st12" d="M739.76,424.16c-4.03-2.21-7.17-5.25-9.43-9.11c-2.26-3.86-3.39-8.19-3.39-13c0-4.81,1.13-9.15,3.39-13 c2.26-3.86,5.41-6.89,9.43-9.11c4.02-2.21,8.51-3.32,13.47-3.32c4.95,0,9.42,1.1,13.4,3.29c3.98,2.19,7.11,5.23,9.4,9.11 c2.29,3.88,3.43,8.23,3.43,13.04c0,4.81-1.14,9.16-3.43,13.04c-2.29,3.88-5.42,6.92-9.4,9.11c-3.98,2.19-8.44,3.29-13.4,3.29 C748.27,427.48,743.78,426.38,739.76,424.16z M763.94,420.09c3.19-1.79,5.69-4.26,7.5-7.43c1.81-3.17,2.71-6.7,2.71-10.61 c0-3.9-0.91-7.44-2.71-10.61c-1.81-3.17-4.31-5.64-7.5-7.43c-3.19-1.79-6.76-2.68-10.72-2.68c-3.95,0-7.54,0.89-10.75,2.68 c-3.21,1.79-5.74,4.26-7.57,7.43c-1.83,3.17-2.75,6.71-2.75,10.61c0,3.91,0.92,7.44,2.75,10.61c1.83,3.17,4.36,5.64,7.57,7.43 c3.22,1.79,6.8,2.68,10.75,2.68C757.18,422.77,760.75,421.87,763.94,420.09z"/><path class="st12" d="M828.74,424.77c-0.95,0.86-2.13,1.51-3.54,1.96c-1.4,0.45-2.87,0.68-4.39,0.68c-3.53,0-6.24-0.95-8.15-2.86 c-1.91-1.9-2.86-4.6-2.86-8.07v-22.72h-6.72v-4.29h6.72v-8.22h5.07v8.22h11.43v4.29h-11.43v22.43c0,2.24,0.56,3.94,1.68,5.11 c1.12,1.17,2.73,1.75,4.82,1.75c1.05,0,2.06-0.17,3.04-0.5c0.98-0.33,1.82-0.81,2.54-1.43L828.74,424.77z"/><path class="st12" d="M842.18,424.95c-2.91-1.64-5.19-3.92-6.86-6.82c-1.67-2.91-2.5-6.19-2.5-9.86c0-3.67,0.83-6.95,2.5-9.86 c1.67-2.9,3.95-5.17,6.86-6.79c2.9-1.62,6.17-2.43,9.79-2.43c3.62,0,6.88,0.81,9.79,2.43c2.91,1.62,5.18,3.88,6.82,6.79 c1.64,2.91,2.46,6.19,2.46,9.86c0,3.67-0.82,6.95-2.46,9.86c-1.64,2.91-3.92,5.18-6.82,6.82c-2.91,1.64-6.17,2.46-9.79,2.46 C848.35,427.41,845.08,426.59,842.18,424.95z M859.15,421.09c2.12-1.21,3.77-2.94,4.97-5.18c1.19-2.24,1.79-4.79,1.79-7.64 c0-2.86-0.6-5.41-1.79-7.65c-1.19-2.24-2.85-3.97-4.97-5.18c-2.12-1.21-4.51-1.82-7.18-1.82s-5.06,0.61-7.18,1.82 c-2.12,1.21-3.79,2.94-5,5.18c-1.22,2.24-1.82,4.79-1.82,7.65c0,2.86,0.61,5.41,1.82,7.64c1.21,2.24,2.88,3.97,5,5.18 c2.12,1.21,4.51,1.82,7.18,1.82S857.03,422.3,859.15,421.09z"/><path class="st12" d="M919.91,424.77c-0.95,0.86-2.13,1.51-3.54,1.96c-1.4,0.45-2.87,0.68-4.39,0.68c-3.53,0-6.24-0.95-8.15-2.86 c-1.91-1.9-2.86-4.6-2.86-8.07v-22.72h-6.72v-4.29h6.72v-8.22h5.07v8.22h11.43v4.29h-11.43v22.43c0,2.24,0.56,3.94,1.68,5.11 c1.12,1.17,2.73,1.75,4.82,1.75c1.05,0,2.06-0.17,3.04-0.5c0.98-0.33,1.82-0.81,2.54-1.43L919.91,424.77z"/><path class="st12" d="M959.53,393.3c2.79,2.74,4.18,6.73,4.18,11.97v21.79h-5.07v-21.29c0-3.9-0.98-6.88-2.93-8.93 c-1.95-2.05-4.74-3.07-8.36-3.07c-4.05,0-7.25,1.2-9.61,3.61c-2.36,2.41-3.54,5.73-3.54,9.97v19.72h-5.07v-53.01h5.07v22.01 c1.38-2.19,3.29-3.88,5.72-5.07c2.43-1.19,5.22-1.79,8.36-1.79C952.99,389.19,956.74,390.56,959.53,393.3z"/><path class="st12" d="M1010.36,409.84h-31.44c0.29,3.91,1.79,7.06,4.5,9.47c2.71,2.41,6.14,3.61,10.29,3.61 c2.33,0,4.48-0.42,6.43-1.25c1.95-0.83,3.64-2.06,5.07-3.68l2.86,3.29c-1.67,2-3.75,3.53-6.25,4.57c-2.5,1.05-5.25,1.57-8.25,1.57 c-3.86,0-7.28-0.82-10.25-2.46c-2.98-1.64-5.3-3.92-6.97-6.82c-1.67-2.91-2.5-6.19-2.5-9.86c0-3.67,0.8-6.95,2.39-9.86 c1.6-2.9,3.79-5.17,6.57-6.79c2.79-1.62,5.92-2.43,9.4-2.43c3.48,0,6.6,0.81,9.36,2.43c2.76,1.62,4.93,3.87,6.5,6.75 c1.57,2.88,2.36,6.18,2.36,9.9L1010.36,409.84z M983.11,397.01c-2.45,2.31-3.85,5.32-4.18,9.04h26.65 c-0.33-3.72-1.73-6.73-4.18-9.04c-2.45-2.31-5.51-3.47-9.18-3.47C988.6,393.55,985.56,394.7,983.11,397.01z"/><path class="st12" d="M1097.49,393.26c2.69,2.72,4.04,6.72,4.04,12v21.79h-5.07v-21.29c0-3.9-0.94-6.88-2.82-8.93 c-1.88-2.05-4.54-3.07-7.97-3.07c-3.91,0-6.98,1.2-9.22,3.61c-2.24,2.41-3.36,5.73-3.36,9.97v19.72h-5.07v-21.29 c0-3.9-0.94-6.88-2.82-8.93c-1.88-2.05-4.56-3.07-8.04-3.07c-3.86,0-6.92,1.2-9.18,3.61c-2.26,2.41-3.39,5.73-3.39,9.97v19.72 h-5.07v-37.58h4.86v6.86c1.33-2.29,3.19-4.05,5.57-5.29c2.38-1.24,5.12-1.86,8.22-1.86c3.14,0,5.87,0.67,8.18,2 c2.31,1.33,4.04,3.31,5.18,5.93c1.38-2.48,3.37-4.42,5.97-5.82c2.6-1.4,5.56-2.11,8.9-2.11 C1091.1,389.19,1094.8,390.54,1097.49,393.26z"/><path class="st12" d="M1121.04,424.95c-2.91-1.64-5.19-3.92-6.86-6.82c-1.67-2.91-2.5-6.19-2.5-9.86c0-3.67,0.83-6.95,2.5-9.86 c1.67-2.9,3.95-5.17,6.86-6.79c2.9-1.62,6.17-2.43,9.79-2.43c3.62,0,6.88,0.81,9.79,2.43c2.91,1.62,5.18,3.88,6.82,6.79 c1.64,2.91,2.46,6.19,2.46,9.86c0,3.67-0.82,6.95-2.46,9.86c-1.64,2.91-3.92,5.18-6.82,6.82s-6.17,2.46-9.79,2.46 C1127.2,427.41,1123.94,426.59,1121.04,424.95z M1138,421.09c2.12-1.21,3.77-2.94,4.97-5.18c1.19-2.24,1.79-4.79,1.79-7.64 c0-2.86-0.6-5.41-1.79-7.65c-1.19-2.24-2.85-3.97-4.97-5.18c-2.12-1.21-4.51-1.82-7.18-1.82c-2.67,0-5.06,0.61-7.18,1.82 s-3.79,2.94-5,5.18c-1.22,2.24-1.82,4.79-1.82,7.65c0,2.86,0.61,5.41,1.82,7.64c1.21,2.24,2.88,3.97,5,5.18 c2.12,1.21,4.51,1.82,7.18,1.82C1133.49,422.91,1135.88,422.3,1138,421.09z"/><path class="st12" d="M1165.83,424.95c-2.91-1.64-5.19-3.92-6.86-6.82c-1.67-2.91-2.5-6.19-2.5-9.86c0-3.67,0.83-6.95,2.5-9.86 c1.67-2.9,3.95-5.17,6.86-6.79c2.9-1.62,6.17-2.43,9.79-2.43s6.88,0.81,9.79,2.43c2.91,1.62,5.18,3.88,6.82,6.79 c1.64,2.91,2.46,6.19,2.46,9.86c0,3.67-0.82,6.95-2.46,9.86c-1.64,2.91-3.92,5.18-6.82,6.82c-2.91,1.64-6.17,2.46-9.79,2.46 S1168.74,426.59,1165.83,424.95z M1182.8,421.09c2.12-1.21,3.77-2.94,4.97-5.18c1.19-2.24,1.79-4.79,1.79-7.64 c0-2.86-0.6-5.41-1.79-7.65c-1.19-2.24-2.85-3.97-4.97-5.18c-2.12-1.21-4.51-1.82-7.18-1.82c-2.67,0-5.06,0.61-7.18,1.82 s-3.79,2.94-5,5.18c-1.22,2.24-1.82,4.79-1.82,7.65c0,2.86,0.61,5.41,1.82,7.64c1.21,2.24,2.88,3.97,5,5.18 c2.12,1.21,4.51,1.82,7.18,1.82C1178.29,422.91,1180.68,422.3,1182.8,421.09z"/><path class="st12" d="M1235.46,393.3c2.79,2.74,4.18,6.73,4.18,11.97v21.79h-5.07v-21.29c0-3.9-0.98-6.88-2.93-8.93 c-1.95-2.05-4.74-3.07-8.36-3.07c-4.05,0-7.25,1.2-9.61,3.61c-2.36,2.41-3.54,5.73-3.54,9.97v19.72h-5.07v-37.58h4.86v6.93 c1.38-2.29,3.3-4.06,5.75-5.32c2.45-1.26,5.3-1.89,8.54-1.89C1228.92,389.19,1232.67,390.56,1235.46,393.3z"/><circle class="st13" cx="1336.32" cy="405.35" r="49.65"/><path class="st14" d="M1319.21,387.3c-4.99,0-9.03,4.04-9.03,9.03c0,4.99,4.04,9.03,9.03,9.03s9.03-4.04,9.03-9.03 C1328.24,391.34,1324.2,387.3,1319.21,387.3z M1350.81,409.87c-4.99,0-9.03,4.04-9.03,9.03s4.04,9.03,9.03,9.03 s9.03-4.04,9.03-9.03S1355.79,409.87,1350.81,409.87z M1348.55,396.33c3.74,0,6.77-3.03,6.77-6.77s-3.03-6.77-6.77-6.77 c-3.74,0-6.77,3.03-6.77,6.77S1344.81,396.33,1348.55,396.33z M1316.95,418.89c-1.25,0-2.26,1.01-2.26,2.26 c0,1.25,1.01,2.26,2.26,2.26c1.25,0,2.26-1.01,2.26-2.26C1319.21,419.9,1318.2,418.89,1316.95,418.89z M1335.01,378.27 c-1.25,0-2.26,1.01-2.26,2.26s1.01,2.26,2.26,2.26c1.25,0,2.26-1.01,2.26-2.26S1336.26,378.27,1335.01,378.27z M1335.01,405.35 c-1.25,0-2.26,1.01-2.26,2.26s1.01,2.26,2.26,2.26c1.25,0,2.26-1.01,2.26-2.26S1336.26,405.35,1335.01,405.35z M1332.75,436.95 c-2.49,0-4.51,2.02-4.51,4.51c0,2.49,2.02,4.51,4.51,4.51s4.51-2.02,4.51-4.51C1337.27,438.97,1335.25,436.95,1332.75,436.95z" id="Эллипс_2_копия_6"/><path class="st15" d="M1332.89,454.19c3.53,3.74-38.57-11.69-44.22-41.33c-2.59-13.57,2.06-24.36,3.33-27.11	c12.37-26.71,47.49-31.4,48.89-28.67c1.05,2.05-23.92,19.91-25.11,46.22C1314.51,431.52,1331.1,452.29,1332.89,454.19z"/><path class="st10" d="M1336.32,360.85c24.54,0,44.5,19.96,44.5,44.5s-19.96,44.5-44.5,44.5s-44.5-19.96-44.5-44.5 S1311.78,360.85,1336.32,360.85 M1336.32,353.85c-28.44,0-51.5,23.06-51.5,51.5c0,28.44,23.06,51.5,51.5,51.5 c28.44,0,51.5-23.06,51.5-51.5C1387.82,376.91,1364.76,353.85,1336.32,353.85L1336.32,353.85z"/></svg>