<svg xmlns="http://www.w3.org/2000/svg" xmlns:xlink="http://www.w3.org/1999/xlink" width="18" height="18" viewBox="0 0 18 18"><defs><path id="a" d="M18 9A9 9 0 1 1 0 9a9 9 0 0 1 18 0zM7.959 13.765l6.677-6.677a.58.58 0 0 0 0-.821l-.82-.821a.58.58 0 0 0-.822 0L7.548 10.89 5.006 8.35a.58.58 0 0 0-.821 0l-.821.821a.58.58 0 0 0 0 .821l3.774 3.774a.58.58 0 0 0 .821 0z"/></defs><g fill="none" fill-rule="evenodd"><mask id="b" fill="#fff"><use xlink:href="#a"/></mask><use fill="#fff" fill-rule="nonzero" xlink:href="#a"/><g fill="#F6F9FD" mask="url(#b)"><path d="M-.9-.9h20v20h-20z"/></g></g></svg>