<svg id="Слой_1" xmlns="http://www.w3.org/2000/svg" viewBox="0 0 300 300"><style>.st0{fill-rule:evenodd;clip-rule:evenodd;fill:#01abe8}.st1{fill:#fff}</style><g id="Page-1"><g id="perfect_money"><circle id="Oval-1" class="st0" cx="150" cy="150" r="150"/><path class="st1" d="M199.8,227.6v-29.8c12.8,0.6,23.2,7.2,23.2,14.8c0,1.1,0.9,2,2,2s2-0.9,2-2c0-10.2-11.8-18.2-27.3-18.9 v-7.1c0-1.1-0.9-2-2-2s-2,0.9-2,2v7.1c-15.4,0.6-27.3,8.7-27.3,18.9s11.8,18.2,27.3,18.9v29.8c-12.8-0.6-23.2-7.2-23.2-14.8 c0-1.1-0.9-2-2-2s-2,0.9-2,2c0,10.2,11.8,18.2,27.3,18.9v7.1l0,0c0,1.1,0.9,2,2,2s2-0.9,2-2v-7.1c15.4-0.6,27.3-8.7,27.3-18.9 C227.1,236.3,215.3,228.3,199.8,227.6L199.8,227.6z M172.6,212.7c0-7.7,10.4-14.2,23.2-14.8v29.7 C183,226.9,172.6,220.4,172.6,212.7L172.6,212.7z M199.8,261.3v-29.7c12.8,0.6,23.2,7.2,23.2,14.8S212.6,260.7,199.8,261.3 L199.8,261.3z"/><path class="st1" d="M197.8,276.5c-2.2,0-4-1.8-4-4v-5.2c-15.7-1.3-27.3-10-27.3-20.8c0-2.2,1.8-4,4-4s4,1.8,4,4 c0,6,8.6,11.5,19.2,12.6v-25.8c-15.7-1.3-27.3-10-27.3-20.8c0-10.8,11.6-19.5,27.3-20.8v-5.2c0-2.2,1.8-4,4-4s4,1.8,4,4v5.2 c15.7,1.3,27.3,10,27.3,20.8c0,2.2-1.8,4-4,4s-4-1.8-4-4c0-6-8.6-11.5-19.2-12.6v25.8c15.7,1.3,27.3,10,27.3,20.8 c0,10.8-11.6,19.5-27.3,20.8v5.2C201.8,274.7,200,276.5,197.8,276.5z M170.5,246.5c0,9,10.9,16.2,25.4,16.9l1.9,0.1v0l1.9-0.1 c14.2-0.6,25.4-8,25.4-16.9c0-7.9-8.5-14.5-20.4-16.4c11.7,1.9,20.3,8.6,20.3,16.3c0,8.8-11,16.2-25.1,16.9l-2.1,0.1v-33.7 l-0.1,0v33.7l-2.1-0.1C181.5,262.6,170.5,255.3,170.5,246.5z M201.8,233.8v25.4c10.6-1.1,19.2-6.7,19.2-12.7 C221,240.4,212.4,234.9,201.8,233.8z M197.8,229.5v-33.8l2.1,0.1c14.1,0.7,25.1,8,25.1,16.8c0-9-10.9-16.2-25.4-16.9l-1.9-0.1v0 l-1.9,0.1c-14.2,0.6-25.4,8-25.4,16.9c0,7.2,6.9,13.2,17,15.7c-9.9-2.6-16.8-8.7-16.8-15.6c0-8.8,11-16.1,25.1-16.8l2.1-0.1 V229.5z M193.8,200.1c-10.8,1.1-19.2,6.5-19.2,12.6c0,6.1,8.4,11.6,19.2,12.7V200.1z"/></g></g><path class="st1" d="M137.1,174.9v60.3H97.6v-175h61.8c44.1,0,66.2,18.6,66.2,55.8c0,17.6-6.3,31.8-19,42.7S177,175,155.9,175 h-18.8L137.1,174.9L137.1,174.9z M137.1,90.4V145h15.5c21,0,31.5-9.2,31.5-27.6c0-18-10.5-27-31.5-27H137.1z"/></svg>