<svg id="Слой_1" xmlns="http://www.w3.org/2000/svg" viewBox="0 0 300 300"><style>.st0{fill-rule:evenodd;clip-rule:evenodd;fill:#e33e23}.st1{fill:#870000}.st2{fill-rule:evenodd;clip-rule:evenodd;fill:#fff}</style><g id="Page-1"><g id="perfect_money"><circle id="Oval-1" class="st0" cx="150" cy="150" r="150"/><path class="st1" d="M156.43,145.76V71.75c31.77,1.57,57.71,17.82,57.71,36.88c0,2.77,2.25,5.02,5.02,5.02 c2.77,0,5.01-2.25,5.01-5.02c0-25.29-29.38-45.32-67.76-46.93l0.01-17.68c0-2.77-2.25-5.02-5.02-5.02 c-2.77,0-5.02,2.25-5.02,5.02V61.7c-38.38,1.62-67.76,21.65-67.76,46.93s29.38,45.32,67.76,46.93v74.01 c-31.77-1.57-57.71-17.82-57.71-36.88c0-2.77-2.25-5.02-5.02-5.02c-2.77,0-5.01,2.25-5.01,5.02c0,25.29,29.38,45.32,67.76,46.93 v17.68h-0.01c0,2.77,2.25,5.02,5.02,5.02s5.02-2.25,5.02-5.02v-17.68c38.38-1.62,67.76-21.65,67.76-46.93 C224.18,167.41,194.81,147.38,156.43,145.76L156.43,145.76z M88.67,108.64c0-19.07,25.95-35.31,57.71-36.87v73.75 C114.62,143.95,88.67,127.7,88.67,108.64L88.67,108.64z M156.43,229.58v-73.76c31.77,1.56,57.71,17.81,57.71,36.87 S188.19,228.01,156.43,229.58L156.43,229.58z"/><path id="Combined-Shape" class="st2" d="M34.46,151.95c0,0,66.78,14.42,76.16-16.62c9.2-30.43-21.31-36.72-21.31-36.72H75.9 v51.02H61.54v-49.36H48.82v-5.22c0,0,48.18-0.19,53.5,0.43c26.75,3.13,39.77,51.05-3.07,60.6 C65.93,163.51,34.46,151.95,34.46,151.95z M61.46,162.94v30.63c0,0-0.08,6.52-5.96,6.52c-5.88,0-7.32,0-7.32,0v5.11h41.45v-5.62 h-9.17c0,0-4.73-0.54-4.73-5.35s0-31.57,0-31.57H61.54L61.46,162.94z M114.43,205.45h41.74v-6.4h-12c0,0-3.9-2.2-3.9-6.66 c0-4.46,0-77.08,0-77.08l46.53,90.05l45.52-88.32l-1,76.2c0,0,1.14,6.3-5.3,6.3s-7.81,0.19-7.81,0.19l-0.08,4.9h41.75v-5.83h-9.74 c0,0-4.06,0.4-4.06-4.06s0-92.48,0-92.48s0.06-2.02,3.65-2.02h8.46V94h-25.9l-42.64,88.38l-42.38-87.75h-23.18v5.28h7.36 c0,0,2.55-0.28,2.55,3.6c0,3.88-1,89.3-1,89.3s0.34,6.63-6.94,6.63c-7.28,0-11.62,0-11.62,0v6.44L114.43,205.45z"/></g></g></svg>