<svg xmlns="http://www.w3.org/2000/svg" width="16" height="16" viewBox="0 0 16 16">
    <path fill="#FFF" fill-rule="nonzero" d="M8 14.545a6.545 6.545 0 1 0 0-13.09 6.545 6.545 0 0 0 0 13.09zM8 16A8 8 0 1 1 8 0a8 8 0 0 1 0 16zm-2.366-5.223l-.411-.411a.436.436 0 0 1 0-.618l4.525-4.525c.17-.17.447-.17.618 0l.411.411c.17.17.17.447 0 .618l-4.525 4.525a.436.436 0 0 1-.618 0zm-.411-5.143l.411-.411c.17-.17.447-.17.618 0l4.525 4.525c.17.17.17.447 0 .618l-.411.411a.436.436 0 0 1-.618 0L5.223 6.252a.436.436 0 0 1 0-.618z"/>
</svg>
