<svg xmlns="http://www.w3.org/2000/svg" xmlns:xlink="http://www.w3.org/1999/xlink" width="18" height="18" viewBox="0 0 18 18">
    <defs>
        <path id="a" d="M16.071 0H1.93A1.929 1.929 0 0 0 0 1.929V16.07C0 17.137.863 18 1.929 18H16.07A1.929 1.929 0 0 0 18 16.071V1.93A1.929 1.929 0 0 0 16.071 0zM9 3.455A1.687 1.687 0 1 1 9 6.83a1.687 1.687 0 0 1 0-3.375zm2.25 10.206a.482.482 0 0 1-.482.482H7.232a.482.482 0 0 1-.482-.482v-.965c0-.266.216-.482.482-.482h.482V9.643h-.482a.482.482 0 0 1-.482-.482v-.965c0-.266.216-.482.482-.482h2.572c.266 0 .482.216.482.482v4.018h.482c.266 0 .482.216.482.482v.965z"/>
    </defs>
    <g fill="none" fill-rule="evenodd">
        <mask id="b" fill="#fff">
            <use xlink:href="#a"/>
        </mask>
        <use fill="#fff" fill-rule="nonzero" xlink:href="#a"/>
        <g fill="#F6F9FD" mask="url(#b)">
            <path d="M-.9-.9h20v20h-20z"/>
        </g>
    </g>
</svg>
