<svg xmlns="http://www.w3.org/2000/svg" xmlns:xlink="http://www.w3.org/1999/xlink" width="18" height="18" viewBox="0 0 18 18">
    <defs>
        <path id="a" d="M18 9a9 9 0 0 1-9 9 9 9 0 0 1-9-9c0-4.969 4.03-9 9-9s9 4.031 9 9zm-9 1.815a1.67 1.67 0 1 0 0 3.338 1.67 1.67 0 0 0 0-3.338zm-1.585-6l.27 4.935a.435.435 0 0 0 .434.411h1.762c.231 0 .422-.18.435-.411l.269-4.936a.435.435 0 0 0-.435-.46h-2.3c-.25 0-.449.21-.435.46z"/>
    </defs>
    <g fill="none" fill-rule="evenodd">
        <mask id="b" fill="#fff">
            <use xlink:href="#a"/>
        </mask>
        <use fill="#fff" fill-rule="nonzero" xlink:href="#a"/>
        <g fill="#F6F9FD" mask="url(#b)">
            <path d="M-.9-.9h20v20h-20z"/>
        </g>
    </g>
</svg>
