<?xml version="1.0" standalone="no"?>
<!DOCTYPE svg PUBLIC "-//W3C//DTD SVG 20010904//EN"
 "http://www.w3.org/TR/2001/REC-SVG-20010904/DTD/svg10.dtd">
<svg version="1.0" xmlns="http://www.w3.org/2000/svg"
 width="337.000000pt" height="337.000000pt" viewBox="0 0 337.000000 337.000000"
 preserveAspectRatio="xMidYMid meet">
<metadata>
Created by potrace 1.11, written by Peter Selinger 2001-2013
</metadata>
<g transform="translate(0.000000,337.000000) scale(0.100000,-0.100000)"
fill="#000000" stroke="none">
<path d="M460 3336 c0 -2 33 -26 73 -52 39 -27 78 -57 85 -66 7 -10 18 -18 23
-18 5 0 22 -11 37 -25 15 -14 33 -23 40 -20 6 2 12 -2 12 -10 0 -8 17 -27 37
-42 47 -36 85 -74 107 -107 21 -33 45 -43 57 -25 6 10 9 7 9 -12 0 -28 71
-133 80 -119 3 5 13 -11 21 -35 9 -25 13 -42 8 -39 -5 2 -25 -4 -45 -14 l-37
-19 -88 28 c-106 34 -207 51 -280 47 l-54 -3 50 -25 c49 -25 105 -59 115 -70
3 -3 21 -17 40 -30 62 -43 64 -50 18 -92 -40 -38 -41 -38 -112 -33 -65 4 -67
4 -21 -5 28 -5 64 -12 82 -15 18 -3 38 -12 45 -19 18 -17 72 -31 63 -15 -5 8
0 9 16 4 18 -6 21 -4 13 5 -6 6 -33 18 -60 25 l-49 14 50 -6 c55 -6 94 -23
116 -49 13 -16 12 -17 -9 -12 -13 4 -20 2 -16 -3 3 -6 14 -9 23 -7 10 2 24 -2
32 -9 8 -7 30 -15 48 -18 41 -7 63 -18 82 -41 12 -15 12 -17 0 -9 -9 5 -12 4
-8 -3 4 -5 17 -8 28 -5 15 4 20 2 17 -7 -5 -17 -40 -22 -50 -7 -13 22 -20 -2
-9 -34 16 -45 14 -79 -4 -79 -10 0 -15 -10 -16 -27 0 -23 -4 -17 -22 27 -20
52 -21 53 -27 27 l-5 -29 -21 29 c-11 15 -23 36 -27 46 -11 28 -27 19 -28 -15
0 -32 -1 -32 -26 20 -26 52 -50 71 -38 30 6 -22 5 -22 -6 -4 -7 11 -22 29 -34
40 -12 12 -27 30 -33 41 -10 17 -11 14 -12 -25 0 -44 -1 -45 -15 -20 -8 14
-17 33 -21 42 -6 18 -34 33 -34 19 0 -5 -9 -11 -20 -14 -17 -4 -22 0 -27 24
-3 16 -9 27 -13 24 -4 -3 -13 2 -20 10 -7 8 -18 15 -24 15 -6 0 -2 -7 8 -15
15 -11 17 -18 9 -26 -9 -9 -19 -4 -40 18 -27 29 -91 59 -101 48 -3 -3 4 -15
15 -28 11 -12 24 -33 27 -47 6 -22 2 -19 -28 15 -33 38 -37 40 -95 40 -88 0
-96 -17 -19 -41 35 -10 67 -18 72 -16 5 2 16 -4 25 -12 9 -9 26 -17 37 -19 10
-2 27 -8 38 -12 11 -5 21 -3 26 4 5 10 9 9 13 -3 6 -16 66 -51 74 -43 2 3 14
-4 25 -15 11 -11 26 -17 34 -14 8 3 14 1 14 -4 0 -5 17 -21 37 -35 56 -38 36
-30 -68 25 -52 27 -96 50 -99 50 -3 0 -16 -17 -28 -37 -23 -36 -28 -39 -115
-56 -97 -19 -135 -37 -78 -37 17 0 51 -5 75 -11 l42 -10 -44 -86 c-42 -82 -43
-86 -21 -78 13 4 40 9 59 12 26 3 31 2 20 -6 -8 -6 -22 -11 -30 -11 -29 0
-195 -71 -289 -123 l-95 -52 155 -6 c85 -3 168 -9 184 -13 58 -14 156 -48 152
-52 -2 -3 -17 1 -33 7 -30 12 -205 41 -211 35 -13 -13 -34 -177 -40 -308 -6
-153 -2 -180 23 -140 6 9 40 39 75 67 35 27 58 42 51 33 -7 -9 -38 -35 -67
-58 -43 -33 -59 -53 -74 -96 -28 -73 -80 -313 -87 -399 l-6 -70 30 60 c41 82
124 172 187 201 43 20 64 24 150 22 l100 -1 -106 -7 c-90 -5 -112 -10 -153
-34 -26 -15 -49 -33 -52 -40 -7 -19 50 -167 100 -261 94 -171 291 -388 446
-489 110 -72 302 -162 410 -191 354 -96 680 -66 1007 91 l72 34 34 -20 c19
-12 40 -33 46 -48 8 -21 28 -150 32 -207 0 -5 4 0 10 13 5 13 13 21 18 18 4
-3 15 2 24 12 21 24 77 138 77 157 0 8 4 15 9 15 5 0 19 26 32 58 12 31 26 59
30 62 9 7 46 134 56 195 l8 49 37 -44 c20 -25 62 -88 93 -140 69 -113 69 -113
59 -75 -17 66 -124 275 -163 318 -23 24 -41 48 -41 53 0 5 12 -6 26 -23 14
-18 33 -33 42 -33 10 0 55 -25 102 -56 l85 -56 -105 107 c-117 119 -183 168
-304 227 -44 21 -70 36 -56 32 14 -4 51 -20 82 -35 32 -16 60 -29 63 -29 3 0
-4 17 -15 37 -11 21 -20 45 -20 53 0 8 -7 24 -15 34 -14 19 -15 18 -15 -16 0
-20 -4 -40 -10 -43 -12 -7 -12 17 -1 67 5 20 6 40 3 43 -4 4 -12 25 -19 48
-11 39 -11 40 4 22 30 -39 95 -184 96 -217 2 -25 9 -38 31 -52 17 -10 52 -37
79 -59 l49 -42 23 29 c69 86 166 311 201 465 12 57 26 106 29 109 10 10 24
-13 31 -48 4 -26 3 -31 -5 -20 -8 11 -11 -3 -11 -55 0 -38 -3 -81 -7 -94 -4
-17 -3 -22 5 -17 7 4 12 16 12 27 0 10 4 19 9 19 14 0 69 117 82 175 6 28 15
59 20 70 12 31 21 85 24 146 2 30 10 72 19 93 18 44 21 82 6 91 -5 3 -10 -1
-10 -10 0 -9 -5 -25 -10 -36 -10 -18 -12 -18 -26 -4 -13 12 -14 19 -4 30 9 11
9 15 1 15 -6 0 -11 12 -11 26 0 22 -3 24 -22 19 -13 -4 -28 -13 -34 -20 -11
-14 -86 -16 -77 -2 8 13 -14 7 -27 -8 -17 -20 -24 -19 -58 10 -35 29 -42 31
-42 10 0 -13 -6 -13 -37 4 -21 10 -52 22 -69 25 -56 12 -84 71 -34 71 16 0 28
-8 35 -22 10 -23 54 -37 69 -23 17 17 -3 40 -36 41 l-33 1 30 9 c20 6 31 5 37
-4 4 -6 10 -8 14 -5 3 4 -1 14 -10 23 -18 19 -21 35 -6 35 11 0 132 -81 180
-119 30 -25 53 -26 71 -5 11 14 10 19 -9 34 -12 10 -28 21 -35 24 -9 3 -7 9 5
19 16 13 14 16 -22 36 -46 26 -54 39 -10 16 l30 -15 -6 30 c-4 20 -2 30 5 30
7 0 9 5 6 10 -3 6 -1 10 4 10 6 0 11 5 11 10 0 6 -7 10 -15 10 -9 0 -20 11
-24 23 -5 13 -23 30 -40 37 -18 7 -30 14 -28 16 2 3 20 -2 39 -10 29 -13 35
-13 35 -1 0 8 -18 21 -39 30 -21 8 -38 17 -38 20 0 2 7 2 15 -1 11 -5 13 -2 9
10 -3 9 -10 14 -14 11 -4 -3 -11 2 -14 11 -5 14 -1 15 31 9 l38 -7 -34 24
c-46 31 -53 53 -15 45 26 -6 27 -5 10 6 -10 6 -28 20 -40 29 -21 17 -21 17 9
18 31 1 23 11 -21 24 -20 6 -21 4 -14 -41 4 -27 6 -59 5 -73 -2 -14 -4 -33 -4
-42 -2 -32 -16 -19 -45 40 -89 181 -254 377 -427 507 -184 138 -426 240 -625
264 l-64 7 62 -64 c35 -36 80 -83 102 -104 21 -22 53 -58 70 -81 63 -85 107
-149 104 -153 -2 -2 -39 35 -82 81 -42 47 -84 85 -92 85 -20 0 -18 -5 21 -77
19 -35 35 -66 35 -68 0 -13 -27 -2 -38 15 -7 11 -16 20 -21 20 -5 0 -13 -9
-16 -20 -3 -11 -11 -20 -16 -20 -11 0 8 41 24 51 11 8 -9 49 -23 49 -5 0 -18
-17 -29 -37 -26 -49 -26 -37 -1 27 21 54 19 73 -8 68 -12 -3 -20 7 -28 32 -7
23 -16 35 -27 34 -16 -2 -22 8 -18 29 1 5 -9 22 -21 40 -12 17 -23 38 -25 47
-3 21 -46 55 -51 40 -6 -16 19 -71 29 -64 5 3 9 -3 9 -13 0 -10 8 -31 18 -48
21 -33 46 -124 37 -133 -3 -3 -5 0 -5 7 0 19 -69 164 -82 172 -7 5 -17 27 -23
51 l-10 43 -80 -1 c-115 -1 -197 -13 -192 -27 2 -7 13 -11 23 -10 23 2 93 -49
108 -79 6 -13 19 -23 27 -23 8 0 51 -33 95 -72 l79 -73 -65 -2 c-36 -1 -80 -2
-98 -3 -17 0 -32 -3 -32 -7 0 -3 -14 -9 -30 -13 -24 -5 -38 -1 -65 19 -42 32
-47 32 -35 0 6 -14 10 -32 10 -40 0 -17 -46 -19 -53 -1 -3 7 -9 2 -15 -13 -6
-14 -11 -19 -11 -11 -1 8 -4 11 -8 7 -11 -10 -73 56 -73 78 0 17 2 18 13 5 32
-37 65 -59 80 -53 19 7 23 36 5 29 -23 -8 -68 71 -68 118 0 31 -3 38 -10 27
-5 -8 -10 -10 -10 -5 -1 6 -6 -1 -11 -14 l-10 -24 -28 27 c-25 24 -28 34 -25
69 2 23 1 35 -2 27 -4 -8 -14 -22 -23 -31 -15 -17 -17 -17 -39 0 -16 11 -21
22 -16 34 6 16 8 17 24 2 27 -25 33 -1 6 24 -24 23 -56 20 -56 -5 0 -23 -13
-16 -42 20 -16 19 -28 47 -28 61 0 14 -4 24 -9 20 -5 -3 -13 0 -17 6 -5 8 -8
8 -13 0 -11 -17 -51 17 -51 44 0 17 -5 22 -17 20 -21 -3 -52 11 -73 34 -8 9
-24 16 -35 16 -11 0 -25 11 -32 25 -7 14 -13 21 -13 15 0 -5 -21 12 -47 37
-27 26 -59 48 -73 50 -14 2 -30 9 -36 16 -5 8 -22 15 -37 15 -15 1 -29 8 -32
15 -2 6 -11 12 -20 12 -8 0 -32 9 -52 20 -34 18 -73 27 -73 16z m846 -624 c-8
-7 -25 8 -37 31 -11 21 -10 21 15 -2 14 -14 24 -26 22 -29z m-535 11 c13 -16
12 -17 -3 -4 -10 7 -18 15 -18 17 0 8 8 3 21 -13z m64 -23 c18 -11 49 -40 70
-65 20 -25 44 -45 53 -45 20 0 83 -49 65 -50 -7 0 -21 8 -30 18 -10 9 -25 17
-33 17 -19 -1 -116 71 -124 91 -3 8 -9 14 -13 13 -22 -4 -33 3 -33 21 0 25 5
25 45 0z m1425 -24 c0 -3 -4 -8 -10 -11 -5 -3 -10 -1 -10 4 0 6 5 11 10 11 6
0 10 -2 10 -4z m-61 -173 c3 1 6 -1 6 -5 0 -3 11 -18 24 -32 17 -19 28 -23 40
-16 21 11 36 2 43 -27 7 -28 1 -29 -26 -6 -12 10 -9 4 7 -13 15 -17 43 -67 61
-113 38 -91 73 -154 106 -191 l22 -25 -18 30 c-39 65 -74 142 -80 175 -3 19
-22 81 -41 138 -19 57 -33 108 -31 114 3 7 24 -35 49 -91 l45 -103 54 -21 c50
-20 56 -26 72 -72 18 -50 16 -111 -4 -99 -5 3 -7 16 -4 28 4 16 -9 36 -50 81
l-54 60 21 -60 c25 -73 45 -111 62 -122 21 -13 38 -61 25 -69 -7 -4 -14 -2
-16 4 -2 7 -8 12 -13 12 -6 0 -8 -4 -5 -9 10 -16 -25 -21 -45 -7 -39 27 -126
136 -154 193 -16 32 -39 72 -52 90 -13 18 -41 63 -63 100 -22 37 -40 61 -40
53 0 -8 -13 8 -29 37 -16 28 -38 64 -50 79 -46 58 -17 40 55 -36 42 -44 79
-78 83 -77z m-310 107 c0 -10 -3 -8 -9 5 -12 27 -12 43 0 25 5 -8 9 -22 9 -30z
m424 25 c-3 -9 -8 -14 -10 -11 -3 3 -2 9 2 15 9 16 15 13 8 -4z m-640 -107
c54 -36 75 -45 88 -37 10 5 38 9 62 9 37 0 48 -5 61 -25 17 -25 16 -25 -11
-23 -16 1 -34 -1 -41 -5 -6 -5 -24 0 -39 10 -27 17 -27 17 -14 0 8 -10 35 -30
60 -45 l45 -26 -26 -11 c-14 -5 -32 -16 -40 -23 -19 -15 -45 -6 -53 19 -4 11
-10 17 -15 14 -8 -5 -91 60 -98 78 -2 4 -10 7 -18 7 -8 0 -14 3 -14 8 0 4 -16
24 -35 44 -19 20 -35 39 -35 42 0 3 -11 16 -25 30 -14 14 -25 29 -25 35 0 10
48 -18 173 -101z m174 91 c14 -12 13 -14 -8 -20 -22 -6 -22 -7 6 -8 17 -1 48
-13 70 -28 l40 -28 -44 -3 c-24 -2 -49 2 -54 7 -15 15 -30 14 -24 -3 4 -10 -7
-15 -40 -20 -63 -8 -83 -8 -83 3 0 6 15 12 33 14 27 3 26 4 -11 5 -49 2 -122
36 -122 57 0 9 16 16 48 20 26 4 58 11 72 16 32 11 96 5 117 -12z m525 -21
c-7 -7 -12 -8 -12 -2 0 14 12 26 19 19 2 -3 -1 -11 -7 -17z m33 -17 c-3 -6
-11 -11 -17 -11 -6 0 -6 6 2 15 14 17 26 13 15 -4z m16 -24 c-10 -9 -11 -8 -5
6 3 10 9 15 12 12 3 -3 0 -11 -7 -18z m-926 5 c-16 -14 -104 -44 -116 -40 -16
5 73 48 101 48 14 0 20 -4 15 -8z m955 -22 c-6 -11 -13 -20 -16 -20 -2 0 0 9
6 20 6 11 13 20 16 20 2 0 0 -9 -6 -20z m40 -4 c0 -2 -8 -10 -17 -17 -16 -13
-17 -12 -4 4 13 16 21 21 21 13z m-400 -10 c0 -2 3 -11 6 -20 4 -12 0 -16 -17
-17 -23 -1 -23 -2 4 -12 39 -16 34 -23 -24 -30 -37 -5 -57 -2 -75 10 -13 8
-24 12 -24 9 0 -4 26 -23 58 -44 108 -69 302 -235 289 -248 -4 -4 -12 -3 -18
3 -6 6 -17 9 -24 6 -8 -2 -30 13 -51 34 -20 21 -30 29 -22 18 8 -11 19 -27 23
-35 8 -13 7 -13 -11 0 -10 8 -23 21 -27 27 -4 7 -40 38 -79 69 -69 55 -228
208 -228 219 0 3 8 1 18 -4 11 -6 23 -6 28 -1 5 4 20 10 34 13 33 6 140 8 140
3z m-1570 -44 c0 -15 -2 -15 -10 -2 -13 20 -13 33 0 25 6 -3 10 -14 10 -23z
m1980 13 c-7 -8 -17 -15 -23 -15 -6 0 -2 7 9 15 25 19 30 19 14 0z m25 -25
c-10 -11 -23 -20 -29 -20 -6 1 0 10 13 20 30 26 39 26 16 0z m29 -25 c-28 -22
-40 -18 -13 4 13 11 26 17 28 15 3 -2 -4 -11 -15 -19z m-1274 -32 c14 -8 17
-12 8 -9 -9 3 -35 10 -57 16 -23 6 -41 13 -41 16 0 9 63 -7 90 -23z m646 0
c-7 -7 -26 7 -26 19 0 6 6 6 15 -2 9 -7 13 -15 11 -17z m694 2 c0 -2 -13 -11
-30 -20 -38 -19 -40 -11 -2 9 31 17 32 18 32 11z m-1015 -52 c42 -22 127 -84
121 -90 -3 -3 -15 2 -27 10 -11 9 -29 13 -38 10 -14 -4 -14 -3 -1 7 13 10 13
11 0 7 -8 -2 -24 0 -35 6 -19 10 -19 9 -2 -10 25 -28 23 -47 -4 -33 -32 18
-34 4 -2 -15 15 -9 20 -14 10 -11 -63 20 -62 13 3 -17 119 -54 130 -60 130
-68 0 -4 -19 -3 -42 3 -56 12 -138 14 -278 6 l-115 -7 95 18 c52 10 89 19 82
20 -7 0 -11 5 -7 11 3 5 -9 14 -27 19 -30 8 -31 9 -7 10 17 1 26 7 26 17 0 14
-10 16 -71 11 -39 -3 -79 -8 -88 -12 -10 -4 -18 -3 -18 2 0 6 32 15 71 22 39
6 80 16 90 22 52 27 -14 64 -88 50 -23 -5 -40 -5 -38 -1 4 6 76 23 145 34 34
5 79 -3 115 -21z m453 -82 c82 -82 108 -101 139 -106 71 -12 125 -35 170 -71
24 -20 42 -38 40 -40 -2 -2 -30 10 -61 27 -46 25 -70 32 -115 31 -57 0 -103
19 -132 56 -13 16 -12 16 6 3 11 -7 4 1 -15 18 -19 17 -39 30 -45 27 -6 -2
-19 2 -29 10 -17 12 -21 11 -33 -4 -13 -16 -14 -15 -10 5 3 13 1 26 -5 29 -5
3 -7 16 -4 29 5 21 4 22 -28 15 -29 -6 -35 -5 -40 13 -4 15 -11 18 -30 15 -14
-3 -26 -2 -26 2 0 16 47 39 81 39 33 1 46 -9 137 -98z m-748 26 c0 -2 -10 -12
-22 -23 l-23 -19 19 23 c18 21 26 27 26 19z m1395 -57 c-27 -12 -43 -12 -25 0
8 5 22 9 30 9 10 0 8 -3 -5 -9z m-680 -50 c3 -6 -1 -7 -9 -4 -18 7 -21 14 -7
14 6 0 13 -4 16 -10z m742 4 c-3 -3 -12 -4 -19 -1 -8 3 -5 6 6 6 11 1 17 -2
13 -5z m-1467 -7 c0 -2 -19 -18 -42 -36 l-43 -33 37 36 c34 33 48 42 48 33z
m1410 -12 c-14 -8 -29 -14 -35 -14 -5 0 1 6 15 14 14 8 30 14 35 14 6 0 -1 -6
-15 -14z m-823 -27 c-3 -7 -5 -2 -5 12 0 14 2 19 5 13 2 -7 2 -19 0 -25z m707
-1 c8 -12 5 -22 -14 -42 -13 -14 -27 -25 -32 -25 -12 0 -10 35 4 65 12 28 26
28 42 2z m-626 -17 c23 -17 42 -35 42 -40 0 -6 -18 -10 -40 -10 -34 0 -42 4
-55 30 -15 29 -13 50 4 50 4 0 27 -14 49 -30z m122 14 c0 -2 -9 -4 -21 -4 -11
0 -18 4 -14 10 5 8 35 3 35 -6z m-420 -4 c58 -13 120 -40 120 -53 0 -5 -10 -6
-22 -2 -13 4 -34 6 -48 4 -44 -5 -114 -2 -158 6 -38 7 -40 9 -25 21 16 12 16
13 -9 14 -14 0 -61 -7 -104 -15 -43 -8 -80 -13 -82 -10 -2 2 6 7 19 10 152 35
231 42 309 25z m1147 -26 c-3 -3 -12 -4 -19 -1 -8 3 -5 6 6 6 11 1 17 -2 13
-5z m-173 -26 c23 -33 20 -42 -17 -54 -31 -9 -42 -7 -76 14 -8 4 53 62 65 62
7 0 20 -10 28 -22z m-310 -17 c19 -8 26 -16 22 -26 -4 -12 4 -15 42 -15 27 0
57 -7 68 -15 10 -8 29 -15 42 -15 12 0 31 -9 42 -20 24 -24 27 -52 5 -44 -8 4
-17 -1 -21 -9 -3 -8 -22 -18 -42 -22 -20 -3 -45 -9 -56 -12 -14 -4 -16 -2 -10
8 6 12 5 12 -8 1 -10 -8 -17 -9 -20 -3 -2 9 -29 17 -62 20 -5 1 -3 7 3 15 9
11 8 15 -5 20 -9 4 -25 4 -34 1 -13 -4 -19 1 -24 20 -4 14 -11 25 -16 25 -6 0
-10 5 -10 10 0 6 17 11 38 12 35 1 34 2 -11 7 -54 7 -66 23 -22 31 27 5 28 6
8 12 -33 9 -103 -11 -143 -41 -39 -29 -116 -37 -185 -18 -22 6 -44 10 -48 9
-4 -1 -17 7 -29 18 -12 11 -26 20 -32 20 -5 0 -7 2 -4 5 6 6 35 -4 107 -37 41
-19 45 -20 78 -4 18 9 43 16 54 16 11 0 34 8 52 17 79 41 140 44 221 14z
m-1797 3 c-3 -3 -12 -4 -19 -1 -8 3 -5 6 6 6 11 1 17 -2 13 -5z m1500 -16 c-3
-8 -6 -5 -6 6 -1 11 2 17 5 13 3 -3 4 -12 1 -19z m38 2 c-3 -5 -12 -10 -18
-10 -7 0 -6 4 3 10 19 12 23 12 15 0z m-225 -62 c25 -14 53 -35 64 -46 18 -21
18 -21 -7 -27 -27 -7 -87 18 -87 36 0 6 -4 7 -10 4 -5 -3 -10 -1 -10 4 0 6 8
11 18 11 15 1 15 2 -2 12 -15 8 -21 8 -24 0 -2 -7 -11 -12 -19 -12 -9 0 -13 6
-10 14 6 16 -76 27 -157 21 -42 -4 -46 -3 -21 5 17 5 73 8 125 7 83 -2 102 -6
140 -29z m750 8 c8 -7 36 -23 63 -35 26 -13 47 -26 47 -29 0 -15 -39 -31 -61
-26 -21 5 -22 4 -6 -6 17 -11 16 -13 -8 -32 -14 -11 -29 -18 -32 -15 -3 4 -20
-1 -37 -11 -35 -19 -103 -25 -112 -10 -11 17 19 37 91 62 50 18 65 26 53 31
-10 4 -18 13 -18 21 0 22 -42 54 -72 54 -15 0 -28 5 -28 11 0 15 99 2 120 -15z
m100 10 c0 -8 9 -18 20 -21 23 -7 25 -18 7 -33 -17 -14 -52 12 -44 33 7 17 -8
21 -18 5 -4 -7 -13 -7 -26 0 -27 15 -14 30 27 30 23 0 34 -5 34 -14z m-1133
-47 c101 -10 119 -15 168 -46 31 -20 54 -37 51 -40 -3 -3 -21 4 -40 16 -48 30
-129 39 -151 17 -22 -21 -32 -20 -40 4 -7 21 -45 28 -45 9 0 -10 -33 -8 -73 4
-6 2 -25 7 -42 12 -16 4 -38 12 -49 17 -31 16 2 29 59 24 28 -3 101 -11 162
-17z m1396 -5 c3 -3 -5 -18 -19 -32 -13 -15 -24 -33 -24 -41 0 -23 -33 -40
-77 -41 -35 0 -41 3 -36 16 5 14 3 15 -15 5 -28 -15 -42 -14 -42 4 0 8 -3 14
-7 14 -29 -5 -33 2 -18 31 8 16 23 34 32 39 19 11 196 15 206 5z m-1418 -44
c3 -5 -1 -10 -9 -10 -9 0 -16 5 -16 10 0 6 4 10 9 10 6 0 13 -4 16 -10z m-270
-62 c32 -60 60 -94 87 -109 13 -7 47 5 138 51 67 33 131 60 143 59 12 0 17 -3
10 -5 -7 -3 -29 -21 -50 -41 -21 -19 -52 -41 -69 -49 -22 -9 -37 -26 -47 -53
-17 -41 -58 -74 -65 -52 -2 6 -8 11 -14 11 -6 0 -8 -7 -5 -15 4 -8 2 -17 -3
-20 -16 -10 -11 32 5 45 24 20 18 28 -26 37 -43 8 -36 0 -156 197 -3 5 0 7 8
4 8 -2 28 -29 44 -60z m215 48 c0 -3 -4 -8 -10 -11 -5 -3 -10 -1 -10 4 0 6 5
11 10 11 6 0 10 -2 10 -4z m83 -16 c10 0 16 -4 13 -9 -10 -16 -76 -11 -76 6 0
11 6 14 23 9 12 -3 30 -6 40 -6z m1135 -28 c2 -7 -7 -12 -22 -12 -30 0 -44 17
-19 23 24 6 36 3 41 -11z m-68 -6 c0 -2 -12 -11 -27 -20 l-28 -17 24 20 c23
21 31 25 31 17z m-775 -26 c-3 -5 -32 -9 -63 -8 l-57 1 60 7 c33 4 61 7 63 8
2 1 0 -2 -3 -8z m-168 -62 c-3 -8 -6 -5 -6 6 -1 11 2 17 5 13 3 -3 4 -12 1
-19z m291 -43 c7 -14 12 -40 12 -58 0 -31 0 -31 -16 -9 -18 27 -31 92 -17 92
5 0 15 -11 21 -25z m-1397 -59 c-17 -36 -35 -68 -41 -71 -5 -3 8 28 28 68 20
41 39 73 41 71 2 -2 -11 -32 -28 -68z m1473 40 c3 -14 3 -32 0 -40 -12 -31 4
-16 21 20 12 25 20 33 27 26 13 -13 -22 -77 -42 -77 -14 0 -49 57 -50 83 0 23
38 13 44 -12z m123 -13 c2 -6 -1 -14 -6 -18 -6 -3 -12 -32 -12 -63 l-1 -57
-14 65 c-7 36 -11 70 -9 77 5 14 37 11 42 -4z m1033 2 c0 -8 -2 -15 -4 -15 -2
0 -6 7 -10 15 -3 8 -1 15 4 15 6 0 10 -7 10 -15z m-1535 -50 c-4 -25 -10 -44
-12 -41 -3 3 -2 26 2 51 3 26 9 45 12 42 2 -3 1 -26 -2 -52z m1523 25 c7 -12
10 -25 7 -31 -9 -14 -27 1 -21 17 3 8 1 14 -4 14 -6 0 -10 5 -10 10 0 17 14
11 28 -10z m-2206 -12 c-7 -7 -12 -8 -12 -2 0 14 12 26 19 19 2 -3 -1 -11 -7
-17z m2178 -2 c0 -8 -4 -18 -10 -21 -5 -3 -10 3 -10 14 0 12 5 21 10 21 6 0
10 -6 10 -14z m-2205 -6 c-3 -5 -16 -15 -28 -21 -21 -10 -21 -9 2 10 25 23 36
27 26 11z m1364 -98 l9 -37 1 41 c1 24 7 47 16 54 8 7 15 11 15 9 -4 -29 -28
-100 -35 -100 -4 0 -15 19 -23 43 -7 24 -18 47 -23 53 -5 5 -9 16 -9 25 0 23
40 -47 49 -88z m81 88 c0 -5 -2 -10 -4 -10 -3 0 -8 5 -11 10 -3 6 -1 10 4 10
6 0 11 -4 11 -10z m27 -72 c-3 -10 -1 -16 4 -12 5 3 9 -1 10 -8 0 -10 2 -10 6
0 10 26 21 10 32 -49 7 -34 10 -63 8 -66 -8 -7 -78 117 -84 151 -6 29 -5 30
11 17 10 -8 15 -23 13 -33z m-1532 10 c-22 -11 -56 -32 -75 -47 l-35 -25 25
28 c27 30 86 65 110 65 8 0 -3 -9 -25 -21z m1627 -28 c-2 -22 -9 -43 -14 -47
-10 -6 -3 61 8 79 9 14 10 9 6 -32z m-865 -41 c2 -24 5 -63 7 -87 7 -77 -9
-33 -19 54 -7 56 -7 83 0 81 5 -2 11 -23 12 -48z m1018 -118 c23 -158 33 -177
35 -66 1 50 6 101 11 115 6 18 7 12 4 -24 -3 -27 -5 -90 -5 -139 0 -54 -4 -87
-9 -82 -22 24 -71 208 -71 267 0 92 16 60 35 -71z m-903 70 c11 -19 17 -42 15
-52 -3 -12 3 -21 22 -27 35 -12 91 -60 91 -78 0 -13 -4 -13 -28 0 -15 8 -44
17 -65 21 -20 4 -40 11 -43 16 -3 5 -16 9 -29 9 -44 0 -54 48 -26 123 14 37
39 32 63 -12z m778 -38 c0 -17 4 -43 10 -57 5 -14 7 -26 4 -26 -7 0 -40 80
-49 119 -7 32 -7 32 14 14 13 -11 21 -29 21 -50z m238 -44 c1 13 5 21 9 17 5
-4 8 -65 8 -134 0 -70 4 -149 8 -177 6 -44 4 -41 -13 20 -35 128 -67 352 -40
290 7 -16 9 -12 11 20 l2 40 7 -50 c4 -27 8 -39 8 -26z m-1138 -24 c18 -22 4
-31 -25 -15 -19 10 -22 16 -13 22 18 11 24 10 38 -7z m1250 -102 c-16 -50 -34
-127 -39 -170 l-10 -78 3 75 c2 50 14 108 36 173 17 55 33 97 35 95 2 -2 -9
-45 -25 -95z m-1265 57 c3 -5 2 -10 -4 -10 -5 0 -13 5 -16 10 -3 6 -2 10 4 10
5 0 13 -4 16 -10z m1182 -62 c-2 -13 -4 -5 -4 17 -1 22 1 32 4 23 2 -10 2 -28
0 -40z m300 -100 c-3 -8 -6 -5 -6 6 -1 11 2 17 5 13 3 -3 4 -12 1 -19z m-813
-183 c39 -95 66 -203 66 -261 0 -52 -17 -41 -25 17 -4 31 -10 47 -15 39 -4 -7
-11 20 -14 61 -9 99 -15 127 -30 142 -7 7 -16 32 -20 57 -9 58 -5 52 38 -55z
m523 43 c-3 -8 -6 -5 -6 6 -1 11 2 17 5 13 3 -3 4 -12 1 -19z m-539 -295 c-5
-18 -14 -35 -20 -39 -8 -5 -9 -1 -3 12 4 10 10 73 14 139 l6 120 5 -100 c4
-55 2 -114 -2 -132z m352 49 c11 -11 7 -10 -14 3 -16 9 -44 26 -63 37 -18 11
-33 22 -33 25 0 7 93 -47 110 -65z m-510 22 c0 -8 -4 -14 -9 -14 -11 0 -22 26
-14 34 9 9 23 -3 23 -20z m96 -29 c7 -19 14 -42 13 -52 -1 -18 -19 17 -33 65
-11 35 3 26 20 -13z m-46 -15 c0 -13 -1 -13 -10 0 -5 8 -10 22 -10 30 0 13 1
13 10 0 5 -8 10 -22 10 -30z m157 -52 c-3 -8 -6 -5 -6 6 -1 11 2 17 5 13 3 -3
4 -12 1 -19z m-1667 -61 c0 -15 175 -163 223 -189 17 -9 25 -17 16 -18 -8 0
-56 32 -105 71 -137 110 -175 149 -144 149 6 0 10 -6 10 -13z m1870 4 c0 -6
-4 -13 -10 -16 -5 -3 -10 1 -10 9 0 9 5 16 10 16 6 0 10 -4 10 -9z m-1560
-255 c23 -25 28 -35 15 -28 -25 13 -50 41 -59 67 -4 11 -4 16 1 10 4 -5 24
-27 43 -49z m1537 32 c-3 -8 -6 -5 -6 6 -1 11 2 17 5 13 3 -3 4 -12 1 -19z
m130 -55 c-3 -10 -5 -4 -5 12 0 17 2 24 5 18 2 -7 2 -21 0 -30z m-1567 -49 c0
-2 -9 0 -20 6 -11 6 -20 13 -20 16 0 2 9 0 20 -6 11 -6 20 -13 20 -16z"/>
<path d="M1748 2563 c6 -2 18 -2 25 0 6 3 1 5 -13 5 -14 0 -19 -2 -12 -5z"/>
<path d="M1920 2500 c0 -5 6 -10 14 -10 8 0 18 5 21 10 3 6 -3 10 -14 10 -12
0 -21 -4 -21 -10z"/>
<path d="M2765 1900 c-3 -5 -1 -10 4 -10 6 0 11 5 11 10 0 6 -2 10 -4 10 -3 0
-8 -4 -11 -10z"/>
<path d="M1440 1725 c-7 -9 -10 -18 -7 -21 10 -11 37 5 37 21 0 19 -14 19 -30
0z"/>
<path d="M1730 2985 c1 -6 7 -21 14 -34 9 -17 15 -20 21 -11 4 7 -1 21 -14 33
-11 12 -21 17 -21 12z"/>
<path d="M990 2390 c6 -11 13 -20 16 -20 2 0 0 9 -6 20 -6 11 -13 20 -16 20
-2 0 0 -9 6 -20z"/>
<path d="M3240 1825 c-9 -11 -15 -13 -20 -5 -4 7 -9 2 -12 -13 l-5 -25 29 21
c15 11 28 24 28 29 0 12 -6 10 -20 -7z"/>
<path d="M2990 1820 c0 -5 7 -10 16 -10 8 0 12 5 9 10 -3 6 -10 10 -16 10 -5
0 -9 -4 -9 -10z"/>
<path d="M2832 1809 c2 -7 10 -15 17 -17 8 -3 12 1 9 9 -2 7 -10 15 -17 17 -8
3 -12 -1 -9 -9z"/>
<path d="M2953 1799 c4 -13 7 -27 7 -31 0 -5 4 -8 8 -8 14 0 8 53 -7 58 -10 3
-12 -1 -8 -19z"/>
<path d="M3021 1791 c-23 -14 3 -39 34 -33 30 5 32 18 6 32 -23 12 -22 12 -40
1z"/>
<path d="M2904 1756 c11 -9 24 -16 30 -16 12 0 7 5 -24 19 -24 11 -24 11 -6
-3z"/>
<path d="M2990 1751 c0 -6 5 -13 10 -16 6 -3 10 1 10 9 0 9 -4 16 -10 16 -5 0
-10 -4 -10 -9z"/>
<path d="M3025 1730 c-8 -13 20 -24 36 -15 8 6 7 10 -2 16 -18 11 -26 11 -34
-1z"/>
</g>
</svg>
